<?xml version="1.0" standalone="no"?>
<!DOCTYPE svg PUBLIC "-//W3C//DTD SVG 1.1//EN" "http://www.w3.org/Graphics/SVG/1.1/DTD/svg11.dtd" >
<svg xmlns="http://www.w3.org/2000/svg">
<metadata></metadata>
<defs>
<font id="agenda-mediumregular" horiz-adv-x="1548" >
<font-face units-per-em="2048" ascent="1638" descent="-410" />
<missing-glyph horiz-adv-x="471" />
<glyph horiz-adv-x="2048" />
<glyph horiz-adv-x="2048" />
<glyph unicode="&#xd;" horiz-adv-x="471" />
<glyph unicode=" "  horiz-adv-x="471" />
<glyph unicode="&#x09;" horiz-adv-x="471" />
<glyph unicode="&#xa0;" horiz-adv-x="471" />
<glyph unicode="!" horiz-adv-x="546" d="M156 102q0 29 47 76t78 47t78 -47t47 -76q0 -31 -47 -78t-78 -47t-78 47.5t-47 77.5zM164 1397h219l-33 -1063l-153 35z" />
<glyph unicode="&#x22;" horiz-adv-x="641" d="M80 1458h166l-37 -469h-98zM395 1458h166l-35 -469h-98z" />
<glyph unicode="#" horiz-adv-x="882" d="M55 412v118h127l58 246h-134v119h162l94 412h134l-95 -412h195l94 412h133l-94 -412h96v-119h-125l-57 -246h131v-118h-160l-94 -412h-133l94 412h-194l-94 -412h-134l95 412h-99zM315 530h195l57 246h-194z" />
<glyph unicode="$" horiz-adv-x="958" d="M80 76l41 170q63 -47 139 -77t168 -30q117 0 186.5 60.5t69.5 148.5q0 160 -202.5 230.5t-299 169t-96.5 225.5q0 137 83 232t232 122v182h117v-176q86 0 145.5 -17.5t120.5 -53.5l-36 -160q-57 31 -124 50t-137 19q-96 0 -157.5 -54t-61.5 -128q0 -68 53.5 -117 t199 -105t246.5 -158.5t101 -243.5q0 -147 -90 -255t-260 -128v-181h-117v174q-100 0 -173.5 26t-147.5 75z" />
<glyph unicode="%" horiz-adv-x="1425" d="M74 1040q0 129 82 211t209 82q125 0 208.5 -82t83.5 -211q0 -131 -81.5 -213t-210.5 -82q-125 0 -208 81t-83 214zM129 27l1075 1331l90 -76l-1075 -1331zM225 1040q0 -72 39 -112.5t101 -40.5q59 0 100 43t41 110q0 68 -41 109t-100 41t-99.5 -41t-40.5 -109zM768 270 q0 129 82 211t211 82q125 0 208 -83t83 -210q0 -131 -82 -213t-209 -82t-210 81t-83 214zM920 270q0 -70 40.5 -112.5t100.5 -42.5q59 0 99 42t40 113q0 68 -40 108t-99 40q-61 0 -101 -40t-40 -108z" />
<glyph unicode="&#x26;" horiz-adv-x="1236" d="M80 328q0 127 61.5 214t182.5 148q-76 72 -119 153t-43 161q0 145 104.5 237t237.5 92q139 0 248.5 -92t109.5 -237q0 -106 -71.5 -199.5t-180.5 -149.5l285 -284q43 59 80 133t59 143l125 -127q-25 -72 -56.5 -137.5t-84.5 -134.5l248 -248h-252l-117 117 q-78 -63 -180.5 -102.5t-220.5 -39.5q-178 0 -297 103.5t-119 249.5zM268 338q0 -82 70 -141.5t168 -59.5q139 0 268 103l-330 329q-94 -47 -135 -98t-41 -133zM340 1001q0 -49 35 -98t114 -127q195 100 195 225q0 63 -54 118t-126 55q-68 0 -116 -53.5t-48 -119.5z" />
<glyph unicode="'" horiz-adv-x="325" d="M80 1458h166l-37 -469h-98z" />
<glyph unicode="(" horiz-adv-x="552" d="M86 494q0 283 59.5 516t171.5 446l187 -41q-111 -199 -173.5 -433t-62.5 -486q0 -502 226 -961l-193 43q-106 213 -160.5 423t-54.5 493z" />
<glyph unicode=")" horiz-adv-x="552" d="M49 -426q109 199 172.5 433.5t63.5 484.5q0 266 -54.5 492t-171.5 470l193 -45q106 -213 160.5 -423t54.5 -492q0 -285 -59.5 -516.5t-174.5 -446.5z" />
<glyph unicode="*" horiz-adv-x="851" d="M61 1049l19 168l276 -111l-16 264l170 39l-21 -303l244 102l90 -149l-291 -76l170 -207l-114 -127l-164 252l-141 -223l-156 72l190 233z" />
<glyph unicode="+" horiz-adv-x="929" d="M82 487v160h297v281h174v-281h295v-160h-295v-280h-174v280h-297z" />
<glyph unicode="," horiz-adv-x="403" d="M43 -256q53 68 89 139.5t44 120.5q-29 4 -64.5 39t-35.5 59q0 33 47 78t78 45q29 0 77 -44t48 -79q0 -61 -69.5 -181.5t-141.5 -188.5z" />
<glyph unicode="-" horiz-adv-x="675" d="M82 487v160h512v-160h-512z" />
<glyph unicode="." horiz-adv-x="403" d="M76 102q0 29 47 76t78 47t78 -47t47 -76q0 -31 -47 -78t-78 -47t-78 47.5t-47 77.5z" />
<glyph unicode="/" horiz-adv-x="1263" d="M37 63l1071 1319l119 -98l-1065 -1321z" />
<glyph unicode="0" horiz-adv-x="1134" d="M82 655q0 334 141.5 506t343.5 172q203 0 344.5 -172t141.5 -506t-142.5 -507t-343.5 -173q-205 0 -345 171t-140 509zM270 655q0 -266 86 -390t211 -124t211 124t86 390q0 264 -86 388t-211 124q-127 0 -212 -122.5t-85 -389.5z" />
<glyph unicode="1" horiz-adv-x="677" d="M37 1139l35 155l422 39v-1333h-187v1165z" />
<glyph unicode="2" horiz-adv-x="985" d="M59 0v37q283 299 437.5 520t154.5 371q0 119 -65.5 180t-171.5 61q-74 0 -140.5 -24.5t-134.5 -69.5l-39 164q66 43 147 68.5t167 25.5q190 0 308 -107.5t118 -303.5q0 -117 -75 -259.5t-183.5 -279.5t-194.5 -223h522v-160h-850z" />
<glyph unicode="3" horiz-adv-x="866" d="M63 205q113 -63 238 -64q119 0 207 69t88 200q0 102 -80 178t-192 76l-37 -2l-37 153q106 20 174 76.5t68 130.5q0 68 -47.5 108.5t-120.5 40.5q-59 0 -105.5 -12t-105.5 -47l-33 158q115 63 250 63q152 0 250 -82t98 -213q0 -94 -53.5 -168.5t-118.5 -93.5 q113 -27 195.5 -127t82.5 -262q0 -182 -126 -296t-349 -114q-104 0 -203 39z" />
<glyph unicode="4" horiz-adv-x="1015" d="M27 498l616 809h125v-805h154v-152h-154v-350h-186v350h-523zM221 502h361v317l2 160q-12 -16 -52 -69.5t-69 -92.5z" />
<glyph unicode="5" horiz-adv-x="921" d="M100 213q123 -72 271 -72q119 0 199.5 71t80.5 189q0 123 -79.5 196t-194.5 73q-131 0 -225 -35l20 672h571l-34 -160h-359l-8 -318l53 5q188 0 316.5 -118t128.5 -317q0 -178 -122 -300t-337 -122q-78 0 -135.5 12.5t-102.5 35.5z" />
<glyph unicode="6" horiz-adv-x="1042" d="M82 451q0 260 171 513t435 388l184 -86q-193 -92 -327.5 -223.5t-210.5 -286.5q70 70 207 69q184 0 302 -121.5t118 -300.5q0 -184 -123.5 -305t-311.5 -121t-316 126t-128 348zM272 412q0 -111 78 -191t180 -80t172 72t70 188q0 111 -69 186t-175 75q-94 0 -158.5 -41 t-80 -93.5t-16.5 -79t-1 -36.5z" />
<glyph unicode="7" horiz-adv-x="946" d="M63 1147v160h867l-561 -1307h-201l496 1147h-601z" />
<glyph unicode="8" horiz-adv-x="1038" d="M82 362q0 133 79 224.5t169 128.5q-76 31 -133.5 108.5t-57.5 177.5q0 147 106.5 239.5t272.5 92.5t273.5 -93t107.5 -239q0 -98 -56.5 -172.5t-133.5 -109.5q84 -31 165.5 -128t81.5 -229q0 -176 -126 -281.5t-312 -105.5q-184 0 -310 104.5t-126 282.5zM258 369 q0 -96 75 -163t179 -67q106 0 181 64.5t75 165.5q0 92 -80 158.5t-184 95.5q-96 -29 -171 -94.5t-75 -159.5zM322 997q0 -66 57 -121t149 -79q90 27 141.5 80t51.5 120q0 76 -57.5 127.5t-143.5 51.5q-84 0 -141 -50.5t-57 -128.5z" />
<glyph unicode="9" horiz-adv-x="1042" d="M82 907q0 184 123 305t311 121t316.5 -126t128.5 -347q0 -260 -171.5 -513t-435.5 -388l-184 86q193 92 328 223t211 287q-70 -70 -207 -70q-184 0 -302 122t-118 300zM270 909q0 -111 69 -185.5t175 -74.5q94 0 158.5 41t80 93.5t16.5 79t1 36.5q0 111 -78 190.5 t-180 79.5t-172 -71.5t-70 -188.5z" />
<glyph unicode=":" horiz-adv-x="403" d="M76 102q0 29 47 76t78 47t78 -47t47 -76q0 -31 -47 -78t-78 -47t-78 47.5t-47 77.5zM76 825q0 31 47 78t78 47t78 -47t47 -78q0 -29 -47 -76t-78 -47t-78 47.5t-47 75.5z" />
<glyph unicode=";" horiz-adv-x="403" d="M43 -256q53 68 89 139.5t44 120.5q-29 4 -64.5 39t-35.5 59q0 33 47 78t78 45q29 0 77 -44t48 -79q0 -61 -69.5 -181.5t-141.5 -188.5zM76 825q0 31 47 78t78 47t78 -47t47 -78q0 -29 -47 -76t-78 -47t-78 47.5t-47 75.5z" />
<glyph unicode="&#x3c;" horiz-adv-x="733" d="M80 567l369 369l120 -119l-247 -250l247 -250l-120 -118z" />
<glyph unicode="=" horiz-adv-x="929" d="M82 311v160h766v-160h-766zM82 664v159h766v-159h-766z" />
<glyph unicode="&#x3e;" horiz-adv-x="733" d="M164 317l248 250l-248 250l121 119l368 -369l-368 -368z" />
<glyph unicode="?" horiz-adv-x="802" d="M45 1323q100 96 277 96q178 0 288.5 -98t110.5 -270q0 -92 -47.5 -174.5t-143.5 -186.5q-53 -57 -78.5 -119.5t-25.5 -121.5v-64t6 -55l-153 35q-8 31 -11.5 53t-3.5 55q0 199 99.5 303.5t131 161.5t31.5 135q0 68 -55 125t-147 57q-76 0 -130.5 -24.5t-111.5 -77.5z M240 102q0 29 47 76t78 47t77.5 -47t46.5 -76q0 -33 -45.5 -79t-78.5 -46q-31 0 -78 47.5t-47 77.5z" />
<glyph unicode="@" horiz-adv-x="1568" d="M82 545q0 328 239.5 559t577.5 231q266 0 427 -158.5t161 -392.5q0 -186 -110 -347t-292 -161q-59 0 -101 37t-42 105q-78 -141 -266 -142q-94 0 -164 72t-70 199q0 207 144.5 342t331.5 135q80 0 136 -22.5t91 -57.5l-70 -436l-2 -23q0 -61 39 -61q72 0 149.5 110.5 t77.5 253.5q0 178 -126 294t-328 116q-264 0 -456.5 -190.5t-192.5 -462.5q0 -211 119.5 -318.5t297.5 -107.5q143 0 226 71l-41 -161q-29 -20 -83.5 -36t-129.5 -16q-233 0 -388 157t-155 411zM608 551q0 -133 117 -133q70 0 131.5 76.5t83.5 205.5l29 168q-29 13 -64 13 q-121 0 -209 -94.5t-88 -235.5z" />
<glyph unicode="A" horiz-adv-x="1267" d="M41 0l557 1325h72l557 -1325h-201l-141 338h-508l-141 -338h-195zM444 496h373l-129 319q-8 20 -23.5 62.5t-31.5 97.5q-31 -94 -60 -160z" />
<glyph unicode="B" horiz-adv-x="1067" d="M133 0v1307h365q143 0 254.5 -90.5t111.5 -251.5q0 -78 -31.5 -141.5t-89.5 -88.5q96 -27 169 -122t73 -216q0 -188 -130 -292.5t-298 -104.5h-424zM330 168h186q113 0 189.5 57.5t76.5 171.5q0 109 -78.5 169.5t-187.5 60.5h-186v-459zM330 795h135q88 0 143.5 42 t55.5 128t-56.5 130t-142.5 44h-135v-344z" />
<glyph unicode="C" horiz-adv-x="1228" d="M82 653q0 317 216 498.5t488 181.5q129 0 220.5 -22.5t164.5 -63.5l-34 -172q-49 33 -143.5 59.5t-184.5 26.5q-211 0 -368.5 -133t-157.5 -375q0 -240 156.5 -373t369.5 -133q113 0 205 21.5t155 60.5l-41 -190q-61 -33 -141 -48.5t-201 -15.5q-272 0 -488 181.5 t-216 496.5z" />
<glyph unicode="D" horiz-adv-x="1323" d="M133 0v1307h402q291 0 498.5 -175.5t207.5 -478.5t-206.5 -478t-499.5 -175h-402zM330 168h170q236 0 387 124t151 361q0 238 -151 362t-387 124h-170v-971z" />
<glyph unicode="E" horiz-adv-x="952" d="M133 0v1307h705v-170h-506v-396h424v-170h-424v-401h577v-170h-776z" />
<glyph unicode="F" horiz-adv-x="884" d="M133 0v1307h723v-170h-524v-396h442v-170h-442v-571h-199z" />
<glyph unicode="G" horiz-adv-x="1394" d="M82 653q0 317 216 498.5t488 181.5q131 0 239 -27.5t183 -76.5l-37 -172q-78 49 -170 76.5t-192 27.5q-211 0 -368.5 -134t-157.5 -376q0 -240 155.5 -372t372.5 -132q180 0 276 68v272h-301v160h490v-530q-92 -74 -207.5 -108t-269.5 -34q-285 0 -501 182.5t-216 495.5z " />
<glyph unicode="H" horiz-adv-x="1337" d="M133 0v1307h199v-566h674v566h198v-1307h-198v571h-674v-571h-199z" />
<glyph unicode="I" horiz-adv-x="526" d="M164 0v1307h198v-1307h-198z" />
<glyph unicode="J" horiz-adv-x="557" d="M-125 -135q156 29 238 130t82 284v1028h198v-1049q0 -227 -116.5 -361t-272.5 -163z" />
<glyph unicode="K" horiz-adv-x="1114" d="M133 0v1307h199v-617l516 617h229l-542 -645l555 -662h-244l-514 612v-612h-199z" />
<glyph unicode="L" horiz-adv-x="917" d="M133 0v1307h199v-1137h575v-170h-774z" />
<glyph unicode="M" horiz-adv-x="1699" d="M113 0l112 1307h123l348 -672q66 -127 104 -205t60 -131q29 63 75 157.5t89 178.5l344 672h123l117 -1307h-189l-53 590q-4 51 -12 149.5t-8 147.5q-78 -158 -152 -303l-303 -594h-74l-307 594q-16 31 -57 115.5t-88 183.5q-12 -147 -25 -293l-51 -590h-176z" />
<glyph unicode="N" horiz-adv-x="1437" d="M133 0v1307h137l561 -615q66 -74 164.5 -186.5t110.5 -126.5q2 29 2 64.5v54.5v24q0 43 -1 84t-1 82v619h199v-1336h-60l-612 670q-72 78 -151 169t-150 175q-2 -35 -2 -73v-58v-101.5t2 -97.5v-655h-199z" />
<glyph unicode="O" d="M82 655q0 301 208 489.5t484 188.5q279 0 485.5 -187.5t206.5 -490.5q0 -305 -206.5 -492.5t-485.5 -187.5t-485.5 187.5t-206.5 492.5zM283 655q0 -231 147.5 -369.5t343.5 -138.5q193 0 342.5 138.5t149.5 369.5t-148.5 368.5t-343.5 137.5t-343 -137t-148 -369z" />
<glyph unicode="P" horiz-adv-x="956" d="M133 0v1307h393q154 0 274 -96.5t120 -270.5t-119 -270.5t-275 -96.5h-196v-573h-197zM330 741h162q94 0 159.5 50.5t65.5 148.5q0 96 -65.5 147.5t-159.5 51.5h-162v-398z" />
<glyph unicode="Q" d="M82 655q0 301 208 489.5t484 188.5q279 0 485.5 -187.5t206.5 -490.5q0 -233 -131 -405t-329 -230q37 -12 84 -34.5t97 -46t109.5 -37t114.5 -13.5q27 0 59.5 3.5t79.5 21.5l-125 -174l-55 -6q-100 0 -176 19.5t-170 69.5t-175 89t-142 68q-258 23 -441.5 206t-183.5 469 zM283 655q0 -231 147.5 -369.5t343.5 -138.5q193 0 342.5 138.5t149.5 369.5t-148.5 368.5t-343.5 137.5t-343 -137t-148 -369z" />
<glyph unicode="R" horiz-adv-x="1136" d="M133 0v1307h414q154 0 273.5 -96.5t119.5 -270.5q0 -125 -62.5 -209t-166.5 -127l446 -604h-231l-412 573h-184v-573h-197zM330 741h182q94 0 159.5 50.5t65.5 148.5q0 96 -65.5 147.5t-159.5 51.5h-182v-398z" />
<glyph unicode="S" horiz-adv-x="976" d="M63 281q188 -133 394 -134q111 0 176 55.5t65 147.5q0 166 -291.5 260.5t-291.5 366.5q0 145 108.5 250.5t304.5 105.5q90 0 168 -23.5t117 -52.5l-39 -163q-37 27 -108.5 51t-145.5 24q-96 0 -155.5 -51t-59.5 -127q0 -131 197.5 -198.5t296 -167t98.5 -256.5 q0 -180 -117 -287t-334 -107q-102 0 -191 26t-146 62z" />
<glyph unicode="T" horiz-adv-x="1058" d="M10 1137v170h1039v-170h-420v-1137h-199v1137h-420z" />
<glyph unicode="U" horiz-adv-x="1331" d="M133 461v846h199v-826q0 -152 85 -240.5t251 -88.5t252 90t86 239v826h192v-846q0 -223 -149.5 -354.5t-382.5 -131.5q-236 0 -384.5 130.5t-148.5 355.5z" />
<glyph unicode="V" horiz-adv-x="1142" d="M20 1307h209l242 -623q57 -147 109 -311q39 111 64.5 183.5t47.5 127.5l242 623h188l-518 -1325h-63z" />
<glyph unicode="W" horiz-adv-x="1841" d="M31 1307h198l211 -602q29 -78 53.5 -151t43.5 -148q31 102 48 153t50 146l209 602h170l211 -602q14 -43 48 -151t44 -148q23 76 56.5 172t43.5 127l211 602h182l-464 -1325h-68l-244 698q-27 74 -61.5 183.5t-50.5 166.5q-66 -207 -117 -350l-244 -698h-67z" />
<glyph unicode="X" horiz-adv-x="1175" d="M51 0l418 662l-399 645h225l203 -328q33 -53 53 -88t41 -74q25 41 45 76t53 86l205 328h211l-397 -633l415 -674h-225l-213 344l-100 172l-107 -172l-217 -344h-211z" />
<glyph unicode="Y" horiz-adv-x="1236" d="M20 1307h218l262 -369l123 -184l129 184l262 369h203l-502 -705v-602h-195v602z" />
<glyph unicode="Z" horiz-adv-x="1040" d="M61 0v47l414 727q53 94 109.5 190.5t105.5 174.5l-596 2v166h871v-47l-418 -730l-213 -362l653 -2v-166h-926z" />
<glyph unicode="[" horiz-adv-x="610" d="M115 -446v1880h434v-156h-252v-1569h252v-155h-434z" />
<glyph unicode="\" horiz-adv-x="1263" d="M37 1284l119 98l1071 -1319l-125 -100z" />
<glyph unicode="]" horiz-adv-x="610" d="M74 -291h252v1569h-252v156h434v-1880h-434v155z" />
<glyph unicode="^" horiz-adv-x="759" d="M66 1135q92 39 170.5 109.5t144.5 162.5q63 -90 143 -161.5t170 -110.5l-114 -111q-66 31 -108 58.5t-91 78.5q-45 -45 -93 -77.5t-106 -59.5z" />
<glyph unicode="_" horiz-adv-x="1024" d="M-2 -313h1030v-160h-1030v160z" />
<glyph unicode="`" horiz-adv-x="819" d="M193 1200l40 168q78 -74 185.5 -129t218.5 -86l-102 -100q-121 33 -187.5 60.5t-154.5 86.5z" />
<glyph unicode="a" horiz-adv-x="933" d="M72 262q0 129 88 207t217 90l217 21v59q0 68 -44 110t-136 42q-74 0 -137.5 -18.5t-118.5 -55.5l-37 153q121 80 303 80q160 0 258 -88t98 -248v-374q0 -61 29 -98.5t76 -45.5l-119 -119q-47 10 -83 42t-52 77q-47 -61 -112.5 -90t-147.5 -29q-135 0 -217 84t-82 201z M250 260q0 -49 38 -87t91 -38q78 0 146.5 62.5t68.5 146.5v82l-184 -16q-78 -6 -119 -50.5t-41 -99.5z" />
<glyph unicode="b" horiz-adv-x="1048" d="M123 63v1395h186v-538q27 12 67 21t95 9q207 0 356.5 -133t149.5 -346q0 -229 -145.5 -361.5t-385.5 -132.5q-102 0 -179 23t-144 63zM309 166q29 -10 59.5 -17.5t77.5 -7.5q160 0 251 89t91 241q0 139 -96 227t-221 88q-49 0 -91 -11t-71 -30v-579z" />
<glyph unicode="c" horiz-adv-x="937" d="M72 463q0 219 150.5 353t352.5 134q90 0 162 -17.5t135 -51.5l-34 -164q-61 39 -118.5 54t-131.5 15q-133 0 -230.5 -89t-97.5 -234q0 -143 99.5 -232.5t232.5 -89.5q66 0 128 15.5t138 50.5l-39 -182q-104 -47 -244 -48q-201 0 -352 134.5t-151 351.5z" />
<glyph unicode="d" horiz-adv-x="1101" d="M72 463q0 211 140 349t349 138q72 0 131.5 -17.5t100.5 -43.5v569h186v-1458h-160l-6 74q-90 -96 -287 -97q-168 0 -311 130.5t-143 355.5zM260 463q0 -143 87 -232.5t214 -89.5q72 0 132.5 26t99.5 69v464q-41 39 -99.5 62.5t-132.5 23.5q-129 0 -215 -90t-86 -233z" />
<glyph unicode="e" horiz-adv-x="1005" d="M72 463q0 223 141 355t319 132q182 0 292 -105.5t110 -246.5l-6 -76l-105 -104h-559q0 -98 89 -187.5t241 -89.5q166 0 297 95l-47 -199q-53 -29 -119 -44.5t-156 -15.5q-205 0 -351 136.5t-146 349.5zM276 569h467l2 25q0 74 -57 135.5t-145 61.5q-90 0 -169 -62.5 t-98 -159.5z" />
<glyph unicode="f" horiz-adv-x="686" d="M20 778v150h158v86q0 225 105.5 338.5t310.5 113.5q84 0 158 -30l-33 -158q-68 33 -160 33q-90 0 -142 -71t-52 -169v-143h268l-31 -150h-237v-778h-187v778h-158z" />
<glyph unicode="g" horiz-adv-x="942" d="M47 -139q0 100 55.5 175t137.5 103l-95 94q0 47 32 88t73 64q-137 98 -137 252q0 137 96 225t252 88q29 0 54.5 -3t66.5 -13t112 -10q37 0 74 9t63 23l35 -153q-10 -6 -36.5 -15.5t-55.5 -9.5q33 -55 33 -141q0 -131 -93 -222t-253 -91q-119 0 -119 -52q0 -23 27 -32 l254 -88q129 -45 194.5 -120t65.5 -198q0 -133 -115 -220t-299 -87q-188 0 -305 94t-117 240zM213 -139q0 -76 65.5 -130.5t186.5 -54.5q117 0 181.5 49.5t64.5 110.5q-1 115 -144 158l-161 47q-86 0 -139.5 -51t-53.5 -129zM283 637q0 -68 50 -114t128 -46q70 0 123 47 t53 113q0 63 -50 111.5t-126 48.5t-127 -47.5t-51 -112.5z" />
<glyph unicode="h" horiz-adv-x="1046" d="M123 0v1458h186v-606q53 51 113.5 74.5t159.5 23.5q154 0 253 -91t99 -245v-614h-186v596q0 80 -53.5 137.5t-162.5 57.5q-104 0 -163.5 -58.5t-59.5 -136.5v-596h-186z" />
<glyph unicode="i" horiz-adv-x="495" d="M135 1219q0 31 42 72.5t71 41.5t71.5 -43t42.5 -71q0 -27 -42.5 -70t-71.5 -43t-71 42t-42 71zM154 0v928h188v-928h-188z" />
<glyph unicode="j" horiz-adv-x="495" d="M-47 -356q94 20 147.5 86.5t53.5 183.5v1014h188v-1028q0 -139 -80.5 -243.5t-189.5 -129.5zM133 1219q0 29 43 71.5t72 42.5q27 0 69.5 -43t42.5 -71q0 -29 -41.5 -71t-70.5 -42q-31 0 -73 42t-42 71z" />
<glyph unicode="k" horiz-adv-x="940" d="M123 0v1458h186v-973l396 443h221l-406 -459l418 -469h-242l-387 436v-436h-186z" />
<glyph unicode="l" horiz-adv-x="538" d="M154 219v1239h186v-1214q0 -59 39 -102.5t86 -51.5l-127 -127q-70 18 -127 77.5t-57 178.5z" />
<glyph unicode="m" horiz-adv-x="1601" d="M113 0v928h163l9 -92q57 61 117.5 87.5t164.5 26.5q82 0 151.5 -36.5t108.5 -94.5q53 59 134 95t200 36q141 0 234.5 -85t93.5 -214v-651h-186v635q0 70 -53.5 111.5t-149.5 41.5t-150.5 -44t-54.5 -109v-635h-186v635q0 70 -53.5 111.5t-151.5 41.5q-96 0 -150.5 -44 t-54.5 -109v-635h-186z" />
<glyph unicode="n" horiz-adv-x="1036" d="M113 0v928h163l9 -92q55 61 118.5 87.5t167.5 26.5q154 0 253.5 -91t99.5 -245v-614h-187v596q0 80 -53 137.5t-162 57.5q-104 0 -163.5 -58.5t-59.5 -136.5v-596h-186z" />
<glyph unicode="o" horiz-adv-x="1128" d="M72 463q0 213 141 350t352 137t351.5 -136t140.5 -351q0 -213 -140.5 -349.5t-351.5 -136.5q-209 0 -351 136.5t-142 349.5zM260 463q0 -141 88 -231.5t217 -90.5q127 0 215 90.5t88 231.5q0 143 -88 233t-215 90t-216 -91t-89 -232z" />
<glyph unicode="p" horiz-adv-x="1101" d="M123 -473v1401h160l6 -74q90 96 286 96q168 0 311.5 -130t143.5 -355q0 -211 -140 -349.5t-349 -138.5q-72 0 -131.5 17.5t-100.5 44.5v-512h-186zM309 227q41 -39 99.5 -62.5t132.5 -23.5q129 0 215 90.5t86 233.5t-87 232t-214 89q-72 0 -132.5 -25.5t-99.5 -68.5v-465 z" />
<glyph unicode="q" horiz-adv-x="1048" d="M72 471q0 219 144 349t349 130q63 0 124 -14t110 -37l82 47h45v-1419h-187v481q-29 -12 -71.5 -21.5t-89.5 -9.5q-209 0 -357.5 135.5t-148.5 358.5zM260 471q0 -152 95.5 -241t222.5 -89q90 0 161 41v561q-33 20 -74.5 31.5t-99.5 11.5q-127 0 -216 -87t-89 -228z" />
<glyph unicode="r" horiz-adv-x="698" d="M133 0v928h176l8 -146q35 80 119 119t197 39l35 -158h-19q-135 0 -232.5 -80.5t-97.5 -263.5v-438h-186z" />
<glyph unicode="s" horiz-adv-x="768" d="M55 250q59 -51 142.5 -83t164.5 -32q66 0 107 31t41 80q0 88 -139.5 138t-210 120.5t-70.5 179.5q0 117 87 191.5t224 74.5q74 0 140.5 -18.5t101.5 -40.5l-35 -156q-39 27 -89 43.5t-120 16.5q-59 0 -94 -29t-35 -76q0 -43 31 -69.5t141.5 -66.5t182 -111.5t71.5 -188.5 q0 -119 -88 -198t-250 -79q-82 0 -147.5 17.5t-112.5 50.5z" />
<glyph unicode="t" horiz-adv-x="737" d="M18 778v150h183v188l184 96v-284h328l-33 -150h-295v-516q0 -55 39 -86t98 -31q61 0 103 15l-37 -166q-27 -8 -84 -8q-131 0 -217 73.5t-86 208.5v510h-183z" />
<glyph unicode="u" horiz-adv-x="1036" d="M113 313v615h186v-596q0 -80 53.5 -137.5t161.5 -57.5q104 0 163.5 58.5t59.5 136.5v596h187v-928h-164l-8 92q-55 -61 -119 -88t-168 -27q-154 0 -253 91.5t-99 244.5z" />
<glyph unicode="v" horiz-adv-x="954" d="M51 928h189l168 -410q31 -72 43 -106.5t32 -96.5q14 39 25.5 70t54.5 133l166 410h174l-389 -944h-76z" />
<glyph unicode="w" horiz-adv-x="1452" d="M61 928h177l145 -393l63 -195l70 195l146 393h135l147 -393q12 -33 32.5 -96.5t31.5 -98.5l69 195l146 393h168l-351 -944h-67l-168 446q-41 109 -78 229q-20 -61 -37.5 -112t-42.5 -113l-168 -450h-67z" />
<glyph unicode="x" horiz-adv-x="911" d="M61 0l287 469l-274 459h207l118 -203l56 -100l61 100l119 203h201l-273 -451l287 -477h-209l-127 213l-59 109l-66 -109l-127 -213h-201z" />
<glyph unicode="y" horiz-adv-x="980" d="M2 -369q133 49 223 149.5t172 301.5l-346 846h193l172 -422l80 -209l82 203l174 428h178l-342 -838q-98 -244 -212 -376t-261 -197z" />
<glyph unicode="z" horiz-adv-x="860" d="M57 0v37l279 489q25 43 72 124t73 120l-395 2v156h676v-37l-281 -490l-145 -243l463 -2v-156h-742z" />
<glyph unicode="{" horiz-adv-x="712" d="M41 492q100 63 143 171.5t43 264.5q0 225 96.5 364.5t294.5 139.5l33 -144q-125 0 -183 -92t-58 -276q0 -143 -36 -244t-122 -184q84 -78 121 -182.5t37 -246.5q0 -180 59 -274t182 -94l-33 -144q-199 0 -295 139.5t-96 366.5q0 152 -43 262.5t-143 172.5z" />
<glyph unicode="|" horiz-adv-x="487" d="M164 -473v1931h160v-1931h-160z" />
<glyph unicode="}" horiz-adv-x="712" d="M61 -305q125 0 183.5 92t58.5 276q0 143 36 246t122 183q-84 82 -121 185t-37 243q0 180 -59.5 274t-182.5 94l33 144q199 0 295 -139.5t96 -364.5q0 -154 43 -263.5t144 -172.5q-100 -61 -143.5 -170t-43.5 -265q0 -227 -96 -366.5t-295 -139.5z" />
<glyph unicode="~" horiz-adv-x="819" d="M123 461l37 147q96 53 142 76t136 23l31 -129q53 8 113.5 31.5t117.5 56.5l-36 -144q-76 -51 -138.5 -75.5t-140.5 -24.5l-31 125q-113 -16 -231 -86z" />
<glyph unicode="&#xa1;" horiz-adv-x="546" d="M141 1208q0 31 47.5 78t77.5 47q31 0 78 -47t47 -78q0 -29 -47 -76t-78 -47t-78 47.5t-47 75.5zM164 -86l33 1063l153 -35l33 -1028h-219z" />
<glyph unicode="&#xa2;" horiz-adv-x="937" d="M72 827q0 201 128 331t310 153v198h117v-196q72 0 128 -16.5t117 -51.5l-34 -164q-61 39 -118.5 54.5t-131.5 15.5q-133 0 -230.5 -89t-97.5 -235q0 -143 99.5 -232t232.5 -89q66 0 128 15.5t138 49.5l-39 -182q-41 -18 -93 -31.5t-99 -13.5v-176h-117v178 q-182 23 -310 153t-128 328z" />
<glyph unicode="&#xa3;" horiz-adv-x="856" d="M31 596v117h157v159q0 225 105.5 339t310.5 114q84 0 158 -31l-33 -157q-68 33 -160 32q-90 0 -143 -70.5t-53 -168.5v-217h295l-13 -117h-282v-96q0 -111 -15.5 -198t-40.5 -132q31 4 82.5 8t100.5 4q88 0 158.5 -9t150.5 -34l-23 -162q-129 49 -292 50 q-82 0 -157 -12.5t-126 -28.5l-139 73q57 82 86.5 190.5t29.5 266.5v80h-157z" />
<glyph unicode="&#xa4;" horiz-adv-x="991" d="M76 895l82 84l131 -131q90 68 207 67q113 0 200 -63l131 131l82 -82l-129 -131q63 -88 64 -203q0 -117 -68 -207l133 -133l-84 -82l-133 134q-92 -59 -196 -60q-109 0 -203 64l-133 -133l-82 83l133 134q-63 88 -64 200q0 57 14.5 103.5t45.5 91.5zM258 567 q0 -100 67.5 -169.5t170.5 -69.5q98 0 169.5 69.5t71.5 169.5t-70.5 169t-170.5 69q-98 0 -168 -69.5t-70 -168.5z" />
<glyph unicode="&#xa5;" horiz-adv-x="1236" d="M20 1307h222l262 -369l123 -184l129 184l262 369h199l-361 -506h135v-117h-219l-57 -80v-37h276v-116h-276v-451h-195v451h-278v116h278v33l-55 84h-223v117h137z" />
<glyph unicode="&#xa6;" horiz-adv-x="487" d="M164 371h160v-844h-160v844zM164 614v844h160v-844h-160z" />
<glyph unicode="&#xa7;" horiz-adv-x="952" d="M121 520l61 268q-61 76 -61 197q0 139 106.5 241.5t284.5 102.5q100 0 166.5 -17.5t130.5 -51.5l-37 -170q-59 39 -119.5 56t-136.5 17q-100 0 -155.5 -49t-55.5 -129q0 -23 12.5 -55.5t30.5 -52.5l498 -521l-62 -268q61 -76 62 -197q0 -139 -104.5 -241.5t-284.5 -102.5 q-102 0 -168 17.5t-127 54.5l33 168q61 -35 122.5 -54.5t135.5 -19.5q100 0 155.5 49.5t55.5 128.5q0 27 -8.5 54.5t-34.5 54.5zM244 604l448 -465l31 137l-451 463z" />
<glyph unicode="&#xa8;" horiz-adv-x="819" d="M145 1159q0 27 41 68t66 41q29 0 67.5 -41t38.5 -68q0 -25 -38.5 -65.5t-67.5 -40.5q-25 0 -66 41t-41 65zM459 1159q0 27 39 68t67 41q29 0 68 -41t39 -68q0 -25 -39 -65.5t-68 -40.5q-27 0 -66.5 42t-39.5 64z" />
<glyph unicode="&#xa9;" horiz-adv-x="1228" d="M72 512q0 236 155.5 387.5t386.5 151.5t387 -151.5t156 -387.5t-156 -387.5t-387 -151.5t-386.5 151.5t-155.5 387.5zM186 512q0 -186 120 -310t308 -124t308 124t120 310t-120 310t-308 124t-308 -124t-120 -310zM350 508q0 127 91 208t212 81q57 0 105.5 -15.5 t83.5 -42.5l-23 -123q-33 23 -76 33t-84 10q-66 0 -111.5 -39.5t-45.5 -111.5t46 -116t111 -44q41 0 80 11.5t90 48.5l-30 -154q-31 -16 -69 -27.5t-77 -11.5q-121 0 -212 81t-91 212z" />
<glyph unicode="&#xaa;" horiz-adv-x="765" d="M72 793q0 92 72.5 158.5t166.5 74.5l178 16v41q0 47 -32.5 78t-102.5 31q-117 0 -209 -62l-34 138q49 33 115.5 49t135.5 16q131 0 212 -70.5t81 -199.5v-293q0 -92 95 -106l-111 -109q-39 8 -68.5 30.5t-46.5 55.5q-39 -45 -91 -65.5t-114 -20.5q-111 0 -179 70.5 t-68 167.5zM231 780q0 -39 28 -68.5t67 -29.5q59 0 111 48t52 122v61l-151 -16q-51 -6 -79 -39t-28 -78zM281 309q0 27 40.5 68t65.5 41q29 0 68 -41t39 -68q0 -25 -39 -65.5t-68 -40.5q-25 0 -65.5 41t-40.5 65z" />
<glyph unicode="&#xab;" horiz-adv-x="901" d="M-2 567q199 145 324 351l106 -107q-31 -61 -78 -122.5t-106 -121.5q63 -63 107 -120.5t77 -122.5l-106 -107q-63 104 -142.5 191.5t-181.5 158.5zM426 567q203 147 326 351l106 -107q-72 -133 -184 -244q117 -113 184 -243l-106 -107q-66 109 -144 193t-182 157z" />
<glyph unicode="&#xac;" horiz-adv-x="1024" d="M82 487v160h819v-371h-164v211h-655z" />
<glyph unicode="&#xad;" horiz-adv-x="675" d="M82 487v160h512v-160h-512z" />
<glyph unicode="&#xae;" horiz-adv-x="983" d="M72 918q0 180 119.5 297.5t300.5 117.5q176 0 297.5 -117.5t121.5 -297.5q0 -182 -120.5 -299t-298.5 -117t-299 116.5t-121 299.5zM162 918q0 -145 93 -238.5t237 -93.5q139 0 232 93t93 239q0 147 -92 239t-233 92t-235.5 -92t-94.5 -239zM334 662v512h160 q66 0 117 -43.5t51 -112.5q0 -43 -19.5 -76t-54.5 -53l121 -174l-82 -56l-133 203h-62v-200h-98zM432 948h47q39 0 61.5 18.5t22.5 51.5q0 69 -84 69h-47v-139z" />
<glyph unicode="&#xb0;" horiz-adv-x="509" d="M45 1130q0 86 61.5 147.5t149.5 61.5q84 0 147.5 -61t63.5 -148q0 -86 -61.5 -147t-149.5 -61q-84 0 -147.5 61t-63.5 147zM150 1130q0 -106 106 -106t106 106q0 107 -106 107t-106 -107z" />
<glyph unicode="&#xb1;" horiz-adv-x="1812" d="M20 778v150h158v69q0 207 106.5 322t295.5 115q74 0 123 -13.5t96 -40.5l-37 -155q-33 20 -89.5 36.5t-113.5 16.5q-90 0 -142 -70.5t-52 -169.5v-110h458v39q0 236 132 367.5t345 131.5q96 0 172 -21.5t142 -70.5v-1124q0 -61 38 -103.5t87 -50.5l-127 -127 q-70 18 -127.5 77.5t-57.5 178.5v1061q-51 25 -155 25q-113 0 -187.5 -81t-74.5 -222v-80h207l-33 -150h-174v-778h-187v778h-458v-778h-187v778h-158z" />
<glyph unicode="&#xb2;" horiz-adv-x="759" d="M68 510v33q406 338 405 518q0 78 -48 120t-132 42q-55 0 -99 -13.5t-96 -42.5l-24 111q39 23 98 39t121 16q152 0 231.5 -73.5t79.5 -202.5q0 -94 -71.5 -209t-196.5 -227h311v-111h-579z" />
<glyph unicode="&#xb3;" horiz-adv-x="638" d="M70 662q39 -27 90 -40.5t90 -13.5q72 0 123 45t51 119q0 59 -43 98t-113 39l-41 -6l-24 111q61 10 107 48t46 77t-28.5 61.5t-71.5 22.5q-72 0 -147 -41l-25 110q78 41 172 41q104 0 167.5 -51t63.5 -143q0 -47 -26.5 -88t-69.5 -60q61 -16 112.5 -76.5t51.5 -142.5 q0 -117 -81 -195.5t-224 -78.5q-92 0 -152 37z" />
<glyph unicode="&#xb4;" horiz-adv-x="819" d="M180 1153q111 31 219.5 86t186.5 129l39 -168q-80 -55 -158 -86.5t-184 -60.5z" />
<glyph unicode="&#xb5;" horiz-adv-x="1126" d="M80 0v928h967v-928h-967zM139 59h387q-45 20 -74 52t-49 73l-264 555v-680zM201 786l493 -348q-86 -35 -136 -93t-50 -116q0 -63 26.5 -102t79.5 -68h373v727h-786z" />
<glyph unicode="&#xb6;" horiz-adv-x="901" d="M80 942q0 178 119.5 276.5t296.5 98.5h348v-152h-144v-1265q0 -139 -80.5 -244t-189.5 -129l-119 117q94 20 147.5 86.5t53.5 183.5v657h-18q-172 0 -293 97.5t-121 273.5z" />
<glyph unicode="&#xb8;" horiz-adv-x="819" d="M225 -422l23 105q37 -27 66.5 -36t72.5 -9q37 0 65.5 26.5t28.5 67.5q0 43 -31.5 70.5t-76.5 27.5q-49 0 -66 -6l33 176h78l-8 -55q74 0 137 -59.5t63 -147.5q0 -98 -67.5 -154.5t-157.5 -56.5q-82 0 -160 51z" />
<glyph unicode="&#xb9;" horiz-adv-x="550" d="M76 1184l28 123l271 26v-823h-131v690z" />
<glyph unicode="&#xba;" horiz-adv-x="931" d="M68 944q0 170 113.5 279.5t285.5 109.5t284.5 -108.5t112.5 -280.5t-112.5 -280.5t-284.5 -108.5t-285.5 109.5t-113.5 279.5zM231 944q0 -111 69 -181.5t167 -70.5q96 0 164.5 71t68.5 181q0 111 -68.5 181.5t-164.5 70.5q-100 0 -168 -69.5t-68 -182.5zM358 309 q0 27 41 68t66 41q29 0 67.5 -41t38.5 -68q0 -25 -38.5 -65.5t-67.5 -40.5q-25 0 -66 41t-41 65z" />
<glyph unicode="&#xbb;" horiz-adv-x="901" d="M43 324q63 125 184 243q-61 59 -105 117.5t-79 126.5l107 107q123 -203 325 -351q-96 -68 -180 -158t-145 -192zM473 324q61 123 182 243q-57 57 -102 116.5t-80 127.5l107 107q123 -201 323 -351q-94 -68 -178 -158t-145 -192z" />
<glyph unicode="&#xbc;" horiz-adv-x="1521" d="M76 1184l28 123l271 26v-823h-131v690zM137 27l1065 1312l72 -59l-1063 -1313zM795 352l387 461h116v-463h109v-110h-109v-240h-131v240h-344zM940 350h227v193l7 96q-25 -33 -41.5 -53t-34.5 -45z" />
<glyph unicode="&#xbd;" horiz-adv-x="1634" d="M76 1184l28 123l271 26v-823h-131v690zM137 27l1065 1312l72 -59l-1063 -1313zM958 0v33q406 338 406 518q0 78 -48 120t-132 42q-55 0 -99.5 -13.5t-95.5 -42.5l-24 111q39 23 98 39t121 16q152 0 231.5 -73.5t79.5 -202.5q0 -94 -71.5 -209t-196.5 -227h311v-111h-580z " />
<glyph unicode="&#xbe;" horiz-adv-x="1576" d="M70 662q39 -27 90 -40.5t90 -13.5q72 0 123 45t51 119q0 59 -43 98t-113 39l-41 -6l-24 111q61 10 107 48t46 77t-28.5 61.5t-71.5 22.5q-72 0 -147 -41l-25 110q78 41 172 41q104 0 167.5 -51t63.5 -143q0 -47 -26.5 -88t-69.5 -60q61 -16 112.5 -76.5t51.5 -142.5 q0 -117 -81 -195.5t-224 -78.5q-92 0 -152 37zM219 27l1065 1312l72 -59l-1063 -1313zM877 352l387 461h116v-463h109v-110h-109v-240h-131v240h-344zM1022 350h227v193l6 96q-25 -33 -41 -53t-34 -45z" />
<glyph unicode="&#xbf;" horiz-adv-x="802" d="M82 260q0 92 47 174t122 163t100.5 143.5t25.5 121.5v39q0 45 -6 80l153 -35q8 -31 11.5 -53.5t3.5 -54.5q0 -199 -99.5 -303.5t-131.5 -162t-32 -134.5q0 -68 55.5 -125.5t147.5 -57.5q76 0 130.5 24.5t111.5 78.5l37 -170q-101 -97 -277 -97q-178 0 -288.5 98.5 t-110.5 270.5zM313 1208q0 33 46.5 79t78.5 46q31 0 78 -47t47 -78q0 -29 -47 -76t-78 -47t-78 47.5t-47 75.5z" />
<glyph unicode="&#xc0;" horiz-adv-x="1267" d="M41 0l557 1325h72l557 -1325h-201l-141 338h-508l-141 -338h-195zM340 1610l40 168q78 -74 185.5 -129t218.5 -86l-102 -100q-121 33 -187.5 60.5t-154.5 86.5zM444 496h373l-129 319q-8 20 -23.5 62.5t-31.5 97.5q-31 -94 -60 -160z" />
<glyph unicode="&#xc1;" horiz-adv-x="1267" d="M41 0l557 1325h72l557 -1325h-201l-141 338h-508l-141 -338h-195zM444 496h373l-129 319q-8 20 -23.5 62.5t-31.5 97.5q-31 -94 -60 -160zM475 1563q111 31 219.5 86t186.5 129l39 -168q-80 -55 -158 -86.5t-184 -60.5z" />
<glyph unicode="&#xc2;" horiz-adv-x="1267" d="M41 0l557 1325h72l557 -1325h-201l-141 338h-508l-141 -338h-195zM366 1559q80 33 146.5 91t124.5 140q53 -76 121.5 -137t146.5 -94l-98 -96q-55 27 -92 51t-78 67q-39 -41 -77 -66.5t-95 -51.5zM444 496h373l-129 319q-8 20 -23.5 62.5t-31.5 97.5q-31 -94 -60 -160z " />
<glyph unicode="&#xc3;" horiz-adv-x="1267" d="M41 0l557 1325h72l557 -1325h-201l-141 338h-508l-141 -338h-195zM344 1502l37 147q96 53 142 75.5t136 22.5l31 -129q53 8 113.5 32t117.5 56l-36 -143q-76 -51 -138.5 -75.5t-140.5 -24.5l-31 125q-113 -16 -231 -86zM444 496h373l-129 319q-8 20 -23.5 62.5 t-31.5 97.5q-31 -94 -60 -160z" />
<glyph unicode="&#xc4;" horiz-adv-x="1267" d="M41 0l557 1325h72l557 -1325h-201l-141 338h-508l-141 -338h-195zM374 1569q0 27 41 68t66 41q29 0 67.5 -41t38.5 -68q0 -25 -38.5 -65.5t-67.5 -40.5q-25 0 -66 41t-41 65zM444 496h373l-129 319q-8 20 -23.5 62.5t-31.5 97.5q-31 -94 -60 -160zM688 1569q0 27 39 68 t67 41q29 0 68 -41t39 -68q0 -25 -39 -65.5t-68 -40.5q-27 0 -66.5 42t-39.5 64z" />
<glyph unicode="&#xc5;" horiz-adv-x="1267" d="M41 0l557 1325h72l557 -1325h-201l-141 338h-508l-141 -338h-195zM401 1674q0 96 67.5 163.5t166.5 67.5q94 0 163.5 -67.5t69.5 -163.5t-67.5 -164t-165.5 -68q-94 0 -164 67.5t-70 164.5zM444 496h373l-129 319q-8 20 -23.5 62.5t-31.5 97.5q-31 -94 -60 -160z M516 1674q0 -53 32.5 -86t86.5 -33q53 0 85.5 32.5t32.5 86.5q0 53 -32.5 85.5t-85.5 32.5t-86 -32.5t-33 -85.5z" />
<glyph unicode="&#xc6;" horiz-adv-x="1667" d="M20 0l758 1307h774v-170h-505v-396h423v-170h-423v-401h577v-170h-774v338h-434l-197 -338h-199zM498 496h352v428l2 215q-27 -55 -51.5 -104t-61.5 -115z" />
<glyph unicode="&#xc7;" horiz-adv-x="1228" d="M82 653q0 317 216 498.5t488 181.5q129 0 220.5 -22.5t164.5 -63.5l-34 -172q-49 33 -143.5 59.5t-184.5 26.5q-211 0 -368.5 -133t-157.5 -375q0 -240 156.5 -373t369.5 -133q113 0 205 21.5t155 60.5l-41 -190q-61 -33 -143 -48.5t-203 -15.5l-4 -30q74 0 137.5 -59.5 t63.5 -147.5q0 -98 -67.5 -154.5t-157.5 -56.5q-82 0 -160 51l22 105q37 -27 67 -36t73 -9q37 0 65.5 26.5t28.5 67.5q0 43 -32 70.5t-77 27.5q-49 0 -65 -6l29 156q-252 31 -437.5 208t-185.5 465z" />
<glyph unicode="&#xc8;" horiz-adv-x="952" d="M133 0v1307h705v-170h-506v-396h424v-170h-424v-401h577v-170h-776zM211 1610l40 168q78 -74 185.5 -129t218.5 -86l-102 -100q-121 33 -187.5 60.5t-154.5 86.5z" />
<glyph unicode="&#xc9;" horiz-adv-x="952" d="M133 0v1307h705v-170h-506v-396h424v-170h-424v-401h577v-170h-776zM350 1563q111 31 219.5 86t186.5 129l39 -168q-80 -55 -158 -86.5t-184 -60.5z" />
<glyph unicode="&#xca;" horiz-adv-x="952" d="M133 0v1307h705v-170h-506v-396h424v-170h-424v-401h577v-170h-776zM245 1559q80 33 146.5 91t124.5 140q53 -76 121.5 -137t146.5 -94l-98 -96q-55 27 -92 51t-78 67q-39 -41 -77 -66.5t-95 -51.5z" />
<glyph unicode="&#xcb;" horiz-adv-x="952" d="M133 0v1307h705v-170h-506v-396h424v-170h-424v-401h577v-170h-776zM243 1569q0 27 41 68t66 41q29 0 67.5 -41t38.5 -68q0 -25 -38.5 -65.5t-67.5 -40.5q-25 0 -66 41t-41 65zM557 1569q0 27 39 68t67 41q29 0 68 -41t39 -68q0 -25 -39 -65.5t-68 -40.5q-27 0 -66.5 42 t-39.5 64z" />
<glyph unicode="&#xcc;" horiz-adv-x="526" d="M0 1610l40 168q78 -74 185.5 -129t218.5 -86l-102 -100q-121 33 -187.5 60.5t-154.5 86.5zM164 0v1307h198v-1307h-198z" />
<glyph unicode="&#xcd;" horiz-adv-x="526" d="M82 1563q111 31 219.5 86t186.5 129l39 -168q-80 -55 -158 -86.5t-184 -60.5zM164 0v1307h198v-1307h-198z" />
<glyph unicode="&#xce;" horiz-adv-x="526" d="M-6 1559q80 33 146.5 91t124.5 140q53 -76 121.5 -137t146.5 -94l-98 -96q-55 27 -92 51t-78 67q-39 -41 -77 -66.5t-95 -51.5zM164 0v1307h198v-1307h-198z" />
<glyph unicode="&#xcf;" horiz-adv-x="526" d="M2 1569q0 27 41 68t66 41q29 0 67.5 -41t38.5 -68q0 -25 -38.5 -65.5t-67.5 -40.5q-25 0 -66 41t-41 65zM164 0v1307h198v-1307h-198zM316 1569q0 27 39 68t67 41q29 0 68 -41t39 -68q0 -25 -39 -65.5t-68 -40.5q-27 0 -66.5 42t-39.5 64z" />
<glyph unicode="&#xd0;" horiz-adv-x="1343" d="M-6 592v149h160v566h401q291 0 499 -175.5t208 -478.5t-207 -478t-500 -175h-401v592h-160zM350 168h170q236 0 387.5 124t151.5 361q0 238 -151.5 362t-387.5 124h-170v-398h258l-30 -149h-228v-424z" />
<glyph unicode="&#xd1;" horiz-adv-x="1437" d="M133 0v1307h137l561 -615q66 -74 164.5 -186.5t110.5 -126.5q2 29 2 64.5v54.5v24q0 43 -1 84t-1 82v619h199v-1336h-60l-612 670q-72 78 -151 169t-150 175q-2 -35 -2 -73v-58v-101.5t2 -97.5v-655h-199zM428 1502l37 147q96 53 142 75.5t136 22.5l31 -129 q53 8 113.5 32t117.5 56l-36 -143q-76 -51 -138.5 -75.5t-140.5 -24.5l-31 125q-113 -16 -231 -86z" />
<glyph unicode="&#xd2;" d="M82 655q0 301 208 489.5t484 188.5q279 0 485.5 -187.5t206.5 -490.5q0 -305 -206.5 -492.5t-485.5 -187.5t-485.5 187.5t-206.5 492.5zM283 655q0 -231 147.5 -369.5t343.5 -138.5q193 0 342.5 138.5t149.5 369.5t-148.5 368.5t-343.5 137.5t-343 -137t-148 -369z M465 1610l40 168q78 -74 185.5 -129t218.5 -86l-102 -100q-121 33 -187.5 60.5t-154.5 86.5z" />
<glyph unicode="&#xd3;" d="M82 655q0 301 208 489.5t484 188.5q279 0 485.5 -187.5t206.5 -490.5q0 -305 -206.5 -492.5t-485.5 -187.5t-485.5 187.5t-206.5 492.5zM283 655q0 -231 147.5 -369.5t343.5 -138.5q193 0 342.5 138.5t149.5 369.5t-148.5 368.5t-343.5 137.5t-343 -137t-148 -369z M608 1563q111 31 219.5 86t186.5 129l39 -168q-80 -55 -158 -86.5t-184 -60.5z" />
<glyph unicode="&#xd4;" d="M82 655q0 301 208 489.5t484 188.5q279 0 485.5 -187.5t206.5 -490.5q0 -305 -206.5 -492.5t-485.5 -187.5t-485.5 187.5t-206.5 492.5zM283 655q0 -231 147.5 -369.5t343.5 -138.5q193 0 342.5 138.5t149.5 369.5t-148.5 368.5t-343.5 137.5t-343 -137t-148 -369z M508 1559q80 33 146.5 91t124.5 140q53 -76 121.5 -137t146.5 -94l-98 -96q-55 27 -92 51t-78 67q-39 -41 -77 -66.5t-95 -51.5z" />
<glyph unicode="&#xd5;" d="M82 655q0 301 208 489.5t484 188.5q279 0 485.5 -187.5t206.5 -490.5q0 -305 -206.5 -492.5t-485.5 -187.5t-485.5 187.5t-206.5 492.5zM283 655q0 -231 147.5 -369.5t343.5 -138.5q193 0 342.5 138.5t149.5 369.5t-148.5 368.5t-343.5 137.5t-343 -137t-148 -369z M475 1502l37 147q96 53 142 75.5t136 22.5l31 -129q53 8 113.5 32t117.5 56l-36 -143q-76 -51 -138.5 -75.5t-140.5 -24.5l-31 125q-113 -16 -231 -86z" />
<glyph unicode="&#xd6;" d="M82 655q0 301 208 489.5t484 188.5q279 0 485.5 -187.5t206.5 -490.5q0 -305 -206.5 -492.5t-485.5 -187.5t-485.5 187.5t-206.5 492.5zM283 655q0 -231 147.5 -369.5t343.5 -138.5q193 0 342.5 138.5t149.5 369.5t-148.5 368.5t-343.5 137.5t-343 -137t-148 -369z M514 1569q0 27 41 68t66 41q29 0 67.5 -41t38.5 -68q0 -25 -38.5 -65.5t-67.5 -40.5q-25 0 -66 41t-41 65zM828 1569q0 27 39 68t67 41q29 0 68 -41t39 -68q0 -25 -39 -65.5t-68 -40.5q-27 0 -66.5 42t-39.5 64z" />
<glyph unicode="&#xd7;" horiz-adv-x="958" d="M152 313l243 244l-241 242l88 88l241 -244l242 242l86 -86l-242 -242l244 -244l-86 -86l-244 242l-243 -244z" />
<glyph unicode="&#xd8;" d="M82 655q0 301 208 489.5t484 188.5q209 0 385 -112l121 151l90 -76l-119 -145q100 -92 157.5 -217t57.5 -279q0 -305 -206.5 -492.5t-485.5 -187.5q-207 0 -383 111l-121 -152l-90 76l117 146q-100 90 -157.5 217t-57.5 282zM283 655q0 -109 33.5 -196.5t99.5 -155.5 l628 776q-127 82 -270 82q-195 0 -343 -137t-148 -369zM506 227q127 -80 268 -80q193 0 342.5 138.5t149.5 369.5q0 111 -34 196t-97 155z" />
<glyph unicode="&#xd9;" horiz-adv-x="1331" d="M133 461v846h199v-826q0 -152 85 -240.5t251 -88.5t252 90t86 239v826h192v-846q0 -223 -149.5 -354.5t-382.5 -131.5q-236 0 -384.5 130.5t-148.5 355.5zM357 1610l40 168q78 -74 185.5 -129t218.5 -86l-102 -100q-121 33 -187.5 60.5t-154.5 86.5z" />
<glyph unicode="&#xda;" horiz-adv-x="1331" d="M133 461v846h199v-826q0 -152 85 -240.5t251 -88.5t252 90t86 239v826h192v-846q0 -223 -149.5 -354.5t-382.5 -131.5q-236 0 -384.5 130.5t-148.5 355.5zM528 1563q111 31 219.5 86t186.5 129l39 -168q-80 -55 -158 -86.5t-184 -60.5z" />
<glyph unicode="&#xdb;" horiz-adv-x="1331" d="M133 461v846h199v-826q0 -152 85 -240.5t251 -88.5t252 90t86 239v826h192v-846q0 -223 -149.5 -354.5t-382.5 -131.5q-236 0 -384.5 130.5t-148.5 355.5zM395 1559q80 33 146.5 91t124.5 140q53 -76 121.5 -137t146.5 -94l-98 -96q-55 27 -92 51t-78 67 q-39 -41 -77 -66.5t-95 -51.5z" />
<glyph unicode="&#xdc;" horiz-adv-x="1331" d="M133 461v846h199v-826q0 -152 85 -240.5t251 -88.5t252 90t86 239v826h192v-846q0 -223 -149.5 -354.5t-382.5 -131.5q-236 0 -384.5 130.5t-148.5 355.5zM407 1569q0 27 41 68t66 41q29 0 67.5 -41t38.5 -68q0 -25 -38.5 -65.5t-67.5 -40.5q-25 0 -66 41t-41 65z M721 1569q0 27 39 68t67 41q29 0 68 -41t39 -68q0 -25 -39 -65.5t-68 -40.5q-27 0 -66.5 42t-39.5 64z" />
<glyph unicode="&#xdd;" horiz-adv-x="1236" d="M20 1307h218l262 -369l123 -184l129 184l262 369h203l-502 -705v-602h-195v602zM452 1563q111 31 219.5 86t186.5 129l39 -168q-80 -55 -158 -86.5t-184 -60.5z" />
<glyph unicode="&#xde;" horiz-adv-x="956" d="M133 0v1307h197v-152h196q154 0 274 -96t120 -271q0 -174 -119 -270t-275 -96h-196v-422h-197zM330 590h162q94 0 159.5 50t65.5 148q0 96 -65.5 147.5t-159.5 51.5h-162v-397z" />
<glyph unicode="&#xdf;" horiz-adv-x="1095" d="M133 0v985q0 244 107.5 362.5t281.5 118.5q172 0 280.5 -107.5t108.5 -320.5q0 -57 -9 -112.5t-25 -110.5q-137 0 -208 -29.5t-71 -95.5q0 -43 30.5 -69.5t141.5 -66.5t182.5 -111.5t71.5 -188.5q0 -119 -88 -198t-250 -79q-78 0 -150.5 19.5t-117.5 50.5v178 q55 -41 123.5 -65.5t148.5 -24.5q66 0 107 31t41 80q0 88 -139.5 138t-210 120.5t-70.5 179.5q0 115 86 190.5t209 75.5q0 4 8 43t8 74q0 96 -56.5 170t-150.5 74q-96 0 -149.5 -79t-53.5 -198v-1034h-186z" />
<glyph unicode="&#xe0;" horiz-adv-x="933" d="M72 262q0 129 88 207t217 90l217 21v59q0 68 -44 110t-136 42q-74 0 -137.5 -18.5t-118.5 -55.5l-37 153q121 80 303 80q160 0 258 -88t98 -248v-374q0 -61 29 -98.5t76 -45.5l-119 -119q-47 10 -83 42t-52 77q-47 -61 -112.5 -90t-147.5 -29q-135 0 -217 84t-82 201z M168 1208l35 144q63 -59 158.5 -108.5t183.5 -76.5l-86 -84q-94 25 -154.5 49.5t-136.5 75.5zM250 260q0 -49 38 -87t91 -38q78 0 146.5 62.5t68.5 146.5v82l-184 -16q-78 -6 -119 -50.5t-41 -99.5z" />
<glyph unicode="&#xe1;" horiz-adv-x="933" d="M72 262q0 129 88 207t217 90l217 21v59q0 68 -44 110t-136 42q-74 0 -137.5 -18.5t-118.5 -55.5l-37 153q121 80 303 80q160 0 258 -88t98 -248v-374q0 -61 29 -98.5t76 -45.5l-119 -119q-47 10 -83 42t-52 77q-47 -61 -112.5 -90t-147.5 -29q-135 0 -217 84t-82 201z M250 260q0 -49 38 -87t91 -38q78 0 146.5 62.5t68.5 146.5v82l-184 -16q-78 -6 -119 -50.5t-41 -99.5zM268 1167q96 29 186.5 75t157.5 110l33 -144q-66 -45 -138.5 -75t-152.5 -50z" />
<glyph unicode="&#xe2;" horiz-adv-x="933" d="M72 262q0 129 88 207t217 90l217 21v59q0 68 -44 110t-136 42q-74 0 -137.5 -18.5t-118.5 -55.5l-37 153q121 80 303 80q160 0 258 -88t98 -248v-374q0 -61 29 -98.5t76 -45.5l-119 -119q-47 10 -83 42t-52 77q-47 -61 -112.5 -90t-147.5 -29q-135 0 -217 84t-82 201z M197 1165q70 29 124 77t105 120q45 -66 103.5 -117t123.5 -80l-82 -82q-51 25 -80.5 43.5t-64.5 57.5q-29 -31 -66.5 -55.5t-78.5 -45.5zM250 260q0 -49 38 -87t91 -38q78 0 146.5 62.5t68.5 146.5v82l-184 -16q-78 -6 -119 -50.5t-41 -99.5z" />
<glyph unicode="&#xe3;" horiz-adv-x="933" d="M72 262q0 129 88 207t217 90l217 21v59q0 68 -44 110t-136 42q-74 0 -137.5 -18.5t-118.5 -55.5l-37 153q121 80 303 80q160 0 258 -88t98 -248v-374q0 -61 29 -98.5t76 -45.5l-119 -119q-47 10 -83 42t-52 77q-47 -61 -112.5 -90t-147.5 -29q-135 0 -217 84t-82 201z M203 1116l30 125q53 29 109.5 56.5t128.5 27.5l27 -111q98 18 196 76l-32 -121q-66 -45 -118 -65.5t-118 -20.5l-27 107q-104 -16 -196 -74zM250 260q0 -49 38 -87t91 -38q78 0 146.5 62.5t68.5 146.5v82l-184 -16q-78 -6 -119 -50.5t-41 -99.5z" />
<glyph unicode="&#xe4;" horiz-adv-x="933" d="M72 262q0 129 88 207t217 90l217 21v59q0 68 -44 110t-136 42q-74 0 -137.5 -18.5t-118.5 -55.5l-37 153q121 80 303 80q160 0 258 -88t98 -248v-374q0 -61 29 -98.5t76 -45.5l-119 -119q-47 10 -83 42t-52 77q-47 -61 -112.5 -90t-147.5 -29q-135 0 -217 84t-82 201z M209 1174q0 23 35 57.5t57 34.5q33 0 61.5 -37t28.5 -55q0 -23 -33.5 -57t-56.5 -34q-31 0 -61.5 37t-30.5 54zM250 260q0 -49 38 -87t91 -38q78 0 146.5 62.5t68.5 146.5v82l-184 -16q-78 -6 -119 -50.5t-41 -99.5zM475 1174q0 25 34 58.5t58 33.5q33 0 61.5 -37t28.5 -55 q0 -23 -33.5 -57t-56.5 -34q-25 0 -58.5 34t-33.5 57z" />
<glyph unicode="&#xe5;" horiz-adv-x="933" d="M72 262q0 129 88 207t217 90l217 21v59q0 68 -44 110t-136 42q-74 0 -137.5 -18.5t-118.5 -55.5l-37 153q121 80 303 80q160 0 258 -88t98 -248v-374q0 -61 29 -98.5t76 -45.5l-119 -119q-47 10 -83 42t-52 77q-47 -61 -112.5 -90t-147.5 -29q-135 0 -217 84t-82 201z M229 1262q0 82 57.5 139t141.5 57q80 0 139.5 -57.5t59.5 -138.5q0 -80 -58.5 -138.5t-140.5 -58.5t-140.5 58.5t-58.5 138.5zM250 260q0 -49 38 -87t91 -38q78 0 146.5 62.5t68.5 146.5v82l-184 -16q-78 -6 -119 -50.5t-41 -99.5zM328 1262q0 -45 27.5 -73t72.5 -28 q43 0 71.5 29t28.5 72q0 45 -26.5 73.5t-73.5 28.5q-43 0 -71.5 -28.5t-28.5 -73.5z" />
<glyph unicode="&#xe6;" horiz-adv-x="1527" d="M72 254q0 135 85 206.5t226 84.5l211 20v74q0 68 -44 110t-136 42q-74 0 -137.5 -18.5t-118.5 -55.5l-37 153q121 80 303 80q211 0 303 -141q66 68 153 104.5t175 36.5q182 0 291.5 -105.5t109.5 -246.5l-6 -76l-104 -104h-558q0 -98 89.5 -187.5t238.5 -89.5 q166 0 297 95l-47 -199q-53 -29 -118.5 -44.5t-155.5 -15.5q-113 0 -213.5 45.5t-171.5 127.5q-59 -88 -144.5 -130.5t-185.5 -42.5q-141 0 -223 80t-82 197zM250 250q0 -45 37 -80t92 -35q78 0 146.5 62.5t68.5 146.5v68l-178 -17q-86 -8 -126 -46t-40 -99zM801 569h465 l2 25q0 74 -57.5 135.5t-145.5 61.5q-92 0 -170 -62.5t-94 -159.5z" />
<glyph unicode="&#xe7;" horiz-adv-x="937" d="M72 463q0 219 150.5 353t352.5 134q90 0 162 -17.5t135 -51.5l-34 -164q-61 39 -118.5 54t-131.5 15q-133 0 -230.5 -89t-97.5 -234q0 -143 99.5 -232.5t232.5 -89.5q66 0 128 15.5t138 50.5l-39 -182q-49 -25 -122.5 -36.5t-133.5 -11.5l-4 -24q63 0 116.5 -51.5 t53.5 -124.5q0 -84 -57.5 -131t-132.5 -47q-72 0 -138 43l21 88q29 -20 57.5 -28.5t61.5 -8.5q31 0 55.5 22.5t24.5 57.5t-28 58.5t-65 23.5q-43 0 -57 -5l27 134q-180 29 -303 155.5t-123 323.5z" />
<glyph unicode="&#xe8;" horiz-adv-x="1005" d="M72 463q0 223 141 355t319 132q182 0 292 -105.5t110 -246.5l-6 -76l-105 -104h-559q0 -98 89 -187.5t241 -89.5q166 0 297 95l-47 -199q-53 -29 -119 -44.5t-156 -15.5q-205 0 -351 136.5t-146 349.5zM276 569h467l2 25q0 74 -57 135.5t-145 61.5q-90 0 -169 -62.5 t-98 -159.5zM303 1208l35 144q63 -59 158.5 -108.5t183.5 -76.5l-86 -84q-94 25 -154.5 49.5t-136.5 75.5z" />
<glyph unicode="&#xe9;" horiz-adv-x="1005" d="M72 463q0 223 141 355t319 132q182 0 292 -105.5t110 -246.5l-6 -76l-105 -104h-559q0 -98 89 -187.5t241 -89.5q166 0 297 95l-47 -199q-53 -29 -119 -44.5t-156 -15.5q-205 0 -351 136.5t-146 349.5zM276 569h467l2 25q0 74 -57 135.5t-145 61.5q-90 0 -169 -62.5 t-98 -159.5zM395 1167q96 29 186.5 75t157.5 110l33 -144q-66 -45 -138.5 -75t-152.5 -50z" />
<glyph unicode="&#xea;" horiz-adv-x="1005" d="M72 463q0 223 141 355t319 132q182 0 292 -105.5t110 -246.5l-6 -76l-105 -104h-559q0 -98 89 -187.5t241 -89.5q166 0 297 95l-47 -199q-53 -29 -119 -44.5t-156 -15.5q-205 0 -351 136.5t-146 349.5zM276 569h467l2 25q0 74 -57 135.5t-145 61.5q-90 0 -169 -62.5 t-98 -159.5zM311 1165q70 29 124 77t106 120q45 -66 103 -117t124 -80l-82 -82q-51 25 -81 43.5t-64 57.5q-29 -31 -67 -55.5t-79 -45.5z" />
<glyph unicode="&#xeb;" horiz-adv-x="1005" d="M72 463q0 223 141 355t319 132q182 0 292 -105.5t110 -246.5l-6 -76l-105 -104h-559q0 -98 89 -187.5t241 -89.5q166 0 297 95l-47 -199q-53 -29 -119 -44.5t-156 -15.5q-205 0 -351 136.5t-146 349.5zM276 569h467l2 25q0 74 -57 135.5t-145 61.5q-90 0 -169 -62.5 t-98 -159.5zM311 1174q0 23 35 57.5t57 34.5q33 0 62 -37t29 -55q0 -23 -34 -57t-57 -34q-31 0 -61.5 37t-30.5 54zM578 1174q0 25 33.5 58.5t58.5 33.5q33 0 61.5 -37t28.5 -55q0 -23 -33.5 -57t-56.5 -34q-25 0 -58.5 34t-33.5 57z" />
<glyph unicode="&#xec;" horiz-adv-x="495" d="M0 1208l35 144q63 -59 158.5 -108.5t183.5 -76.5l-86 -84q-94 25 -154.5 49.5t-136.5 75.5zM154 0v928h188v-928h-188z" />
<glyph unicode="&#xed;" horiz-adv-x="495" d="M119 1167q96 29 186 75t158 110l33 -144q-66 -45 -138.5 -75t-152.5 -50zM154 0v928h188v-928h-188z" />
<glyph unicode="&#xee;" horiz-adv-x="495" d="M20 1165q70 29 124.5 77t105.5 120q45 -66 103.5 -117t123.5 -80l-82 -82q-51 25 -80.5 43.5t-64.5 57.5q-29 -31 -67 -55.5t-79 -45.5zM154 0v928h188v-928h-188z" />
<glyph unicode="&#xef;" horiz-adv-x="495" d="M23 1174q0 23 34.5 57.5t57.5 34.5q33 0 61.5 -37t28.5 -55q0 -23 -33.5 -57t-56.5 -34q-31 0 -61.5 37t-30.5 54zM154 0v928h188v-928h-188zM289 1174q0 25 33.5 58.5t58.5 33.5q33 0 61.5 -37t28.5 -55q0 -23 -33.5 -57t-56.5 -34q-25 0 -58.5 34t-33.5 57z" />
<glyph unicode="&#xf1;" horiz-adv-x="1036" d="M113 0v928h163l9 -92q55 61 118.5 87.5t167.5 26.5q154 0 253.5 -91t99.5 -245v-614h-187v596q0 80 -53 137.5t-162 57.5q-104 0 -163.5 -58.5t-59.5 -136.5v-596h-186zM266 1116l31 125q53 29 109.5 56.5t128.5 27.5l26 -111q98 18 197 76l-33 -121q-66 -45 -118 -65.5 t-118 -20.5l-26 107q-104 -16 -197 -74z" />
<glyph unicode="&#xf2;" horiz-adv-x="1128" d="M72 463q0 213 141 350t352 137t351.5 -136t140.5 -351q0 -213 -140.5 -349.5t-351.5 -136.5q-209 0 -351 136.5t-142 349.5zM260 463q0 -141 88 -231.5t217 -90.5q127 0 215 90.5t88 231.5q0 143 -88 233t-215 90t-216 -91t-89 -232zM313 1208l35 144 q63 -59 158.5 -108.5t183.5 -76.5l-86 -84q-94 25 -154.5 49.5t-136.5 75.5z" />
<glyph unicode="&#xf3;" horiz-adv-x="1128" d="M72 463q0 213 141 350t352 137t351.5 -136t140.5 -351q0 -213 -140.5 -349.5t-351.5 -136.5q-209 0 -351 136.5t-142 349.5zM260 463q0 -141 88 -231.5t217 -90.5q127 0 215 90.5t88 231.5q0 143 -88 233t-215 90t-216 -91t-89 -232zM457 1167q96 29 186 75t158 110 l33 -144q-66 -45 -138.5 -75t-152.5 -50z" />
<glyph unicode="&#xf4;" horiz-adv-x="1128" d="M72 463q0 213 141 350t352 137t351.5 -136t140.5 -351q0 -213 -140.5 -349.5t-351.5 -136.5q-209 0 -351 136.5t-142 349.5zM260 463q0 -141 88 -231.5t217 -90.5q127 0 215 90.5t88 231.5q0 143 -88 233t-215 90t-216 -91t-89 -232zM332 1165q70 29 124 77t105 120 q45 -66 103.5 -117t123.5 -80l-81 -82q-51 25 -81 43.5t-65 57.5q-29 -31 -66.5 -55.5t-78.5 -45.5z" />
<glyph unicode="&#xf5;" horiz-adv-x="1128" d="M72 463q0 213 141 350t352 137t351.5 -136t140.5 -351q0 -213 -140.5 -349.5t-351.5 -136.5q-209 0 -351 136.5t-142 349.5zM260 463q0 -141 88 -231.5t217 -90.5q127 0 215 90.5t88 231.5q0 143 -88 233t-215 90t-216 -91t-89 -232zM319 1116l31 125q53 29 109.5 56.5 t128.5 27.5l26 -111q98 18 197 76l-33 -121q-66 -45 -118 -65.5t-117 -20.5l-27 107q-104 -16 -197 -74z" />
<glyph unicode="&#xf6;" horiz-adv-x="1128" d="M72 463q0 213 141 350t352 137t351.5 -136t140.5 -351q0 -213 -140.5 -349.5t-351.5 -136.5q-209 0 -351 136.5t-142 349.5zM260 463q0 -141 88 -231.5t217 -90.5q127 0 215 90.5t88 231.5q0 143 -88 233t-215 90t-216 -91t-89 -232zM344 1174q0 23 35 57.5t57 34.5 q33 0 61.5 -37t28.5 -55q0 -23 -33.5 -57t-56.5 -34q-31 0 -61.5 37t-30.5 54zM610 1174q0 25 34 58.5t58 33.5q33 0 62 -37t29 -55q0 -23 -34 -57t-57 -34q-25 0 -58.5 34t-33.5 57z" />
<glyph unicode="&#xf7;" horiz-adv-x="929" d="M82 487v160h766v-160h-766zM356 311q0 27 40 67t69 40t68.5 -40t39.5 -67q0 -29 -39.5 -68.5t-68.5 -39.5t-69 40t-40 68zM356 825q0 27 40 67t69 40t68.5 -40t39.5 -67q0 -29 -39.5 -68.5t-68.5 -39.5t-69 40t-40 68z" />
<glyph unicode="&#xf8;" horiz-adv-x="1116" d="M72 463q0 213 141 350t352 137q76 0 137.5 -16t120.5 -51l90 110l86 -71l-86 -107q68 -66 106 -155t38 -197q0 -213 -140.5 -349.5t-351.5 -136.5q-150 0 -264 72l-92 -115l-86 72l88 109q-68 68 -103.5 153.5t-35.5 194.5zM260 463q0 -117 66 -205l389 487 q-72 41 -150 41q-127 0 -216 -91t-89 -232zM408 184q76 -43 157 -43q127 0 215 90.5t88 231.5q0 61 -17 114.5t-50 96.5z" />
<glyph unicode="&#xf9;" horiz-adv-x="1036" d="M113 313v615h186v-596q0 -80 53.5 -137.5t161.5 -57.5q104 0 163.5 58.5t59.5 136.5v596h187v-928h-164l-8 92q-55 -61 -119 -88t-168 -27q-154 0 -253 91.5t-99 244.5zM254 1208l35 144q63 -59 158.5 -108.5t183.5 -76.5l-86 -84q-94 25 -154.5 49.5t-136.5 75.5z" />
<glyph unicode="&#xfa;" horiz-adv-x="1036" d="M113 313v615h186v-596q0 -80 53.5 -137.5t161.5 -57.5q104 0 163.5 58.5t59.5 136.5v596h187v-928h-164l-8 92q-55 -61 -119 -88t-168 -27q-154 0 -253 91.5t-99 244.5zM424 1167q96 29 186 75t158 110l33 -144q-66 -45 -138.5 -75t-152.5 -50z" />
<glyph unicode="&#xfb;" horiz-adv-x="1036" d="M113 313v615h186v-596q0 -80 53.5 -137.5t161.5 -57.5q104 0 163.5 58.5t59.5 136.5v596h187v-928h-164l-8 92q-55 -61 -119 -88t-168 -27q-154 0 -253 91.5t-99 244.5zM295 1165q70 29 124 77t105 120q45 -66 103.5 -117t124.5 -80l-82 -82q-51 25 -81 43.5t-65 57.5 q-29 -31 -66.5 -55.5t-78.5 -45.5z" />
<glyph unicode="&#xfc;" horiz-adv-x="1036" d="M113 313v615h186v-596q0 -80 53.5 -137.5t161.5 -57.5q104 0 163.5 58.5t59.5 136.5v596h187v-928h-164l-8 92q-55 -61 -119 -88t-168 -27q-154 0 -253 91.5t-99 244.5zM299 1174q0 23 35 57.5t57 34.5q33 0 61.5 -37t28.5 -55q0 -23 -33.5 -57t-56.5 -34q-31 0 -61.5 37 t-30.5 54zM565 1174q0 25 34 58.5t58 33.5q33 0 62 -37t29 -55q0 -23 -34 -57t-57 -34q-25 0 -58.5 34t-33.5 57z" />
<glyph unicode="&#xfd;" horiz-adv-x="980" d="M2 -369q133 49 223 149.5t172 301.5l-346 846h193l172 -422l80 -209l82 203l174 428h178l-342 -838q-98 -244 -212 -376t-261 -197zM383 1167q96 29 186 75t158 110l33 -144q-66 -45 -138.5 -75t-152.5 -50z" />
<glyph unicode="&#xfe;" horiz-adv-x="1101" d="M123 -473v1931h186v-586q94 78 266 78q168 0 311.5 -130t143.5 -355q0 -211 -140 -349.5t-349 -138.5q-72 0 -131.5 17.5t-100.5 44.5v-512h-186zM309 227q41 -39 99.5 -62.5t132.5 -23.5q129 0 215 90.5t86 233.5t-87 232t-214 89q-72 0 -132.5 -25.5t-99.5 -68.5v-465z " />
<glyph unicode="&#xff;" horiz-adv-x="980" d="M2 -369q133 49 223 149.5t172 301.5l-346 846h193l172 -422l80 -209l82 203l174 428h178l-342 -838q-98 -244 -212 -376t-261 -197zM272 1167q0 23 35 58t55 35q31 0 61 -38t30 -55q0 -31 -36.5 -60.5t-54.5 -29.5q-23 0 -56.5 34t-33.5 56zM539 1167q0 25 33.5 59 t56.5 34q31 0 60.5 -38t29.5 -55q0 -31 -36 -60.5t-54 -29.5q-23 0 -56.5 34t-33.5 56z" />
<glyph unicode="&#x152;" horiz-adv-x="1951" d="M82 655q0 301 208 489.5t484 188.5q190 0 361 -96v70h702v-170h-506v-396h424v-170h-424v-401h578v-170h-774v72q-170 -96 -361 -97q-279 0 -485.5 187.5t-206.5 492.5zM283 655q0 -231 147.5 -369.5t343.5 -138.5q100 0 192.5 37t168.5 105v731q-72 66 -168.5 103.5 t-192.5 37.5q-195 0 -343 -137t-148 -369z" />
<glyph unicode="&#x153;" horiz-adv-x="1800" d="M72 463q0 213 141 350t352 137q121 0 225.5 -49t170.5 -137q68 90 165 138t201 48q182 0 292 -105.5t110 -246.5l-7 -76l-104 -104h-557q0 -98 89 -187.5t239 -89.5q166 0 297 95l-48 -199q-53 -29 -118.5 -44.5t-155.5 -15.5q-119 0 -224.5 51.5t-174.5 141.5 q-66 -90 -170.5 -141.5t-229.5 -51.5q-209 0 -351 136.5t-142 349.5zM260 463q0 -141 88 -231.5t217 -90.5q127 0 215 90.5t88 231.5q0 143 -88 233t-215 90t-216 -91t-89 -232zM1073 569h465l2 25q0 74 -57.5 135.5t-145.5 61.5q-92 0 -169.5 -62.5t-94.5 -159.5z" />
<glyph unicode="&#x178;" horiz-adv-x="1236" d="M20 1307h218l262 -369l123 -184l129 184l262 369h203l-502 -705v-602h-195v602zM354 1569q0 27 41 68t66 41q29 0 67.5 -41t38.5 -68q0 -25 -38.5 -65.5t-67.5 -40.5q-25 0 -66 41t-41 65zM668 1569q0 27 39 68t67 41q29 0 68 -41t39 -68q0 -25 -39 -65.5t-68 -40.5 q-27 0 -66.5 42t-39.5 64z" />
<glyph unicode="&#x2000;" horiz-adv-x="952" />
<glyph unicode="&#x2001;" horiz-adv-x="1905" />
<glyph unicode="&#x2002;" horiz-adv-x="952" />
<glyph unicode="&#x2003;" horiz-adv-x="1905" />
<glyph unicode="&#x2004;" horiz-adv-x="635" />
<glyph unicode="&#x2005;" horiz-adv-x="476" />
<glyph unicode="&#x2006;" horiz-adv-x="317" />
<glyph unicode="&#x2007;" horiz-adv-x="317" />
<glyph unicode="&#x2008;" horiz-adv-x="238" />
<glyph unicode="&#x2009;" horiz-adv-x="381" />
<glyph unicode="&#x200a;" horiz-adv-x="105" />
<glyph unicode="&#x2010;" horiz-adv-x="675" d="M82 487v160h512v-160h-512z" />
<glyph unicode="&#x2011;" horiz-adv-x="675" d="M82 487v160h512v-160h-512z" />
<glyph unicode="&#x2012;" horiz-adv-x="675" d="M82 487v160h512v-160h-512z" />
<glyph unicode="&#x2013;" horiz-adv-x="1187" d="M82 487v160h1024v-160h-1024z" />
<glyph unicode="&#x2014;" horiz-adv-x="1699" d="M82 487v160h1536v-160h-1536z" />
<glyph unicode="&#x2018;" horiz-adv-x="403" d="M78 1087q0 63 67.5 182.5t141.5 188.5l71 -12q-117 -151 -131 -260q29 -4 65 -39t36 -60q0 -33 -48.5 -77.5t-76.5 -44.5q-29 0 -77 44t-48 78z" />
<glyph unicode="&#x2019;" horiz-adv-x="403" d="M43 987q53 68 89 139.5t44 120.5q-29 4 -64.5 39t-35.5 60q0 33 47 77.5t78 44.5q29 0 77 -44t48 -78q0 -61 -69.5 -182t-141.5 -189z" />
<glyph unicode="&#x201a;" horiz-adv-x="403" d="M43 -256q53 68 89 139.5t44 120.5q-29 4 -64.5 39t-35.5 59q0 33 47 78t78 45q29 0 77 -44t48 -79q0 -61 -69.5 -181.5t-141.5 -188.5z" />
<glyph unicode="&#x201c;" horiz-adv-x="753" d="M78 1087q0 63 67.5 182.5t141.5 188.5l71 -12q-117 -149 -131 -260q29 -4 65 -38t36 -61q0 -33 -48.5 -77.5t-76.5 -44.5q-29 0 -77 44t-48 78zM430 1090q0 61 67.5 181t141.5 189l74 -14q-119 -147 -133 -258q29 -4 64.5 -39t35.5 -59q0 -35 -47 -80t-78 -45 q-29 0 -77 44t-48 81z" />
<glyph unicode="&#x201d;" horiz-adv-x="755" d="M43 987q53 68 89 139.5t44 120.5q-29 4 -64.5 39t-35.5 60q0 33 47 77.5t78 44.5q27 0 76 -45t49 -77q0 -61 -69.5 -182t-141.5 -189zM395 989q53 68 89 139.5t44 118.5q-29 4 -64.5 39t-35.5 60q0 33 47 77.5t78 44.5q27 0 76 -45t49 -77q0 -61 -69.5 -182t-141.5 -189z " />
<glyph unicode="&#x201e;" horiz-adv-x="724" d="M31 -256q53 68 89 139.5t44 120.5q-29 4 -65 39t-36 59q0 33 47.5 78t77.5 45q27 0 76 -45t49 -78q0 -61 -69.5 -181.5t-141.5 -188.5zM383 -254q53 68 89 139.5t44 118.5q-29 4 -64.5 39t-35.5 59q0 33 47 78t78 45q27 0 76 -45t49 -78q0 -61 -69.5 -181.5 t-141.5 -188.5z" />
<glyph unicode="&#x2022;" horiz-adv-x="808" d="M102 567q0 133 87 216t217 83q131 0 216 -83t85 -216q0 -131 -85 -214t-216 -83q-129 0 -216.5 83t-87.5 214z" />
<glyph unicode="&#x2026;" horiz-adv-x="1124" d="M76 102q0 29 47 76t78 47t78 -47t47 -76q0 -31 -47 -78t-78 -47t-78 47.5t-47 77.5zM436 102q0 31 46 77t79 46q31 0 78 -47t47 -76q0 -31 -47 -78t-78 -47t-78 47.5t-47 77.5zM797 102q0 29 47 76t78 47q33 0 80 -47t47 -76q0 -31 -47 -78t-80 -47q-31 0 -78 47.5 t-47 77.5z" />
<glyph unicode="&#x202f;" horiz-adv-x="381" />
<glyph unicode="&#x2039;" horiz-adv-x="473" d="M-2 567q203 147 326 351l106 -107q-70 -129 -186 -244q59 -57 106 -118.5t80 -124.5l-106 -107q-66 109 -144 193t-182 157z" />
<glyph unicode="&#x203a;" horiz-adv-x="473" d="M43 324q63 125 184 243q-61 59 -105 117.5t-79 126.5l107 107q123 -203 325 -351q-96 -68 -180 -158t-145 -192z" />
<glyph unicode="&#x205f;" horiz-adv-x="476" />
<glyph unicode="&#x2122;" horiz-adv-x="851" d="M41 1241v66h289v-66h-109v-313h-71v313h-109zM354 928l31 379h49l135 -263l131 263h52l30 -379h-71l-19 217l-114 -217h-27l-111 213l-16 -213h-70z" />
<glyph unicode="&#x25fc;" horiz-adv-x="931" d="M0 0v932h932v-932h-932z" />
</font>
</defs>
</svg>
