<?xml version="1.0" standalone="no"?>
<!DOCTYPE svg PUBLIC "-//W3C//DTD SVG 1.1//EN" "http://www.w3.org/Graphics/SVG/1.1/DTD/svg11.dtd" >
<svg xmlns="http://www.w3.org/2000/svg">
<metadata></metadata>
<defs>
<font id="agenda-boldregular" horiz-adv-x="1550" >
<font-face units-per-em="2048" ascent="1638" descent="-410" />
<missing-glyph horiz-adv-x="460" />
<glyph horiz-adv-x="2048" />
<glyph horiz-adv-x="2048" />
<glyph unicode="&#xd;" horiz-adv-x="460" />
<glyph unicode=" "  horiz-adv-x="460" />
<glyph unicode="&#x09;" horiz-adv-x="460" />
<glyph unicode="&#xa0;" horiz-adv-x="460" />
<glyph unicode="!" horiz-adv-x="548" d="M109 139q0 39 64.5 103.5t105.5 64.5t105.5 -64.5t64.5 -103.5q0 -41 -63.5 -104.5t-106.5 -63.5q-41 0 -105.5 64.5t-64.5 103.5zM117 1397h315l-37 -1004l-243 51z" />
<glyph unicode="&#x22;" horiz-adv-x="745" d="M74 1458h231l-45 -575h-145zM440 1458h232l-43 -575h-146z" />
<glyph unicode="#" horiz-adv-x="923" d="M61 397v160h132l45 193h-113v159h149l93 398h174l-90 -398h145l90 398h174l-90 -398h94v-159h-133l-43 -193h111v-160h-150l-92 -397h-174l92 397h-145l-92 -397h-175l91 397h-93zM369 557h143l45 193h-145z" />
<glyph unicode="$" horiz-adv-x="1005" d="M74 952q0 152 89 254.5t251 124.5v178h157v-172q80 0 141.5 -18.5t125.5 -52.5l-25 -258q-55 35 -136 58.5t-163 23.5q-68 0 -107.5 -34t-39.5 -87q0 -47 38.5 -82t180 -87t241 -163t99.5 -258q0 -164 -91.5 -273.5t-263.5 -132.5v-172h-157v170q-94 0 -169 28t-157 79 l25 258q72 -49 157.5 -81t184.5 -32q76 0 124 41t48 98q0 55 -43 96.5t-183.5 93.5t-233.5 153.5t-93 246.5z" />
<glyph unicode="%" horiz-adv-x="1458" d="M59 1034q0 133 87 218t221 85q133 0 222 -85t89 -218t-89 -220t-222 -87q-131 0 -219.5 86t-88.5 221zM147 63l1039 1283l123 -101l-1035 -1284zM258 1034q0 -53 30.5 -88t78.5 -35q45 0 77.5 35t32.5 88t-31.5 87t-78.5 34q-45 0 -77 -34t-32 -87zM780 276 q0 133 89 218.5t223 85.5q131 0 220 -85t89 -219q0 -133 -89 -220t-220 -87q-133 0 -222.5 85t-89.5 222zM981 276q0 -53 33 -87.5t78 -34.5q43 0 75.5 34.5t32.5 87.5q0 51 -31.5 85t-76.5 34t-78 -32.5t-33 -86.5z" />
<glyph unicode="&#x26;" horiz-adv-x="1282" d="M59 334q0 135 55.5 218t155.5 142q-61 63 -99 137t-38 150q0 160 109.5 258t267.5 98q162 0 278.5 -99t116.5 -261q0 -106 -66.5 -195.5t-160.5 -142.5l205 -205q100 127 153 271l178 -181q-25 -63 -62.5 -128.5t-92.5 -137.5l258 -258h-350l-90 90q-82 -55 -178.5 -87 t-209.5 -32q-188 0 -309 105.5t-121 257.5zM324 346q0 -61 53 -104t125 -43q51 0 99 16t99 49l-256 256q-121 -59 -120 -174zM385 987q0 -37 28.5 -78t88.5 -98q147 80 147 172q0 49 -40 91t-97 42q-51 0 -89 -40t-38 -89z" />
<glyph unicode="'" horiz-adv-x="378" d="M74 1458h231l-45 -575h-145z" />
<glyph unicode="(" horiz-adv-x="606" d="M74 510q0 281 52 517.5t157 453.5l305 -60q-102 -201 -158.5 -445.5t-56.5 -492.5q0 -268 49 -498.5t160 -467.5l-306 61q-104 229 -153 444.5t-49 487.5z" />
<glyph unicode=")" horiz-adv-x="606" d="M20 -430q98 199 155.5 444.5t57.5 491.5q0 268 -49 499.5t-157 469.5l303 -66q102 -223 153.5 -442t51.5 -488q0 -283 -52.5 -516.5t-158.5 -454.5z" />
<glyph unicode="*" horiz-adv-x="905" d="M61 1040l25 213l274 -112l-16 256l217 49l-16 -301l231 98l115 -190l-291 -78l164 -201l-148 -162l-163 254l-138 -217l-198 94l194 232z" />
<glyph unicode="+" horiz-adv-x="925" d="M68 451v229h270v254h250v-254h270v-229h-270v-254h-250v254h-270z" />
<glyph unicode="," horiz-adv-x="450" d="M37 -291q57 66 98 144.5t53 146.5q-37 6 -85 56t-48 85q0 43 64.5 104.5t105.5 61.5q37 0 103.5 -60.5t66.5 -105.5q0 -86 -81 -222t-181 -226z" />
<glyph unicode="-" horiz-adv-x="671" d="M68 451v229h536v-229h-536z" />
<glyph unicode="." horiz-adv-x="450" d="M55 139q0 39 64.5 103.5t105.5 64.5t105.5 -64.5t64.5 -103.5q0 -41 -63.5 -104.5t-106.5 -63.5q-41 0 -105.5 64.5t-64.5 103.5z" />
<glyph unicode="/" horiz-adv-x="1323" d="M53 104l1043 1282l174 -143l-1039 -1288z" />
<glyph unicode="0" horiz-adv-x="1144" d="M72 655q0 336 142 509t357 173t358.5 -172t143.5 -510q0 -340 -144.5 -513t-357.5 -173q-217 0 -358 171t-141 515zM371 655q0 -209 57 -317.5t143 -108.5t144.5 108.5t58.5 317.5q0 207 -57.5 315.5t-145.5 108.5q-84 0 -142 -110.5t-58 -313.5z" />
<glyph unicode="1" horiz-adv-x="702" d="M33 1028l22 260l504 45v-1333h-295v1049z" />
<glyph unicode="2" horiz-adv-x="993" d="M55 0v80q217 223 365.5 442t148.5 352q0 94 -53 147.5t-141 53.5q-72 0 -133.5 -21.5t-126.5 -62.5l-25 264q66 39 143.5 60.5t169.5 21.5q209 0 339 -113.5t130 -324.5q0 -145 -104 -327.5t-231 -321.5h403v-250h-885z" />
<glyph unicode="3" horiz-adv-x="884" d="M61 276q49 -25 109.5 -38t120.5 -13q88 0 151.5 48.5t63.5 136.5q0 72 -55.5 123t-135.5 51l-61 -6l-25 231q86 18 136.5 61t50.5 101q0 51 -36 82.5t-99 31.5q-53 0 -91 -8t-86 -30l-22 241q109 49 248 49q176 0 282.5 -88t106.5 -231q0 -88 -45 -161t-109 -99 q102 -29 178 -124t76 -235q0 -203 -136 -315.5t-380 -112.5q-51 0 -109.5 10.5t-105.5 30.5z" />
<glyph unicode="4" horiz-adv-x="1064" d="M18 551l564 756h274v-764h139v-228h-139v-315h-278v315h-521zM291 543h287v266l6 133q-25 -35 -41.5 -60.5t-55.5 -74.5z" />
<glyph unicode="5" horiz-adv-x="927" d="M90 285q106 -57 244 -58q92 0 153.5 49.5t61.5 129.5q0 84 -62.5 137t-156.5 53q-113 0 -203 -33l18 744h617l-23 -250h-307l-8 -234l39 2q158 0 278.5 -118.5t120.5 -298.5q0 -199 -131 -318t-369 -119q-78 0 -139 12.5t-106 32.5z" />
<glyph unicode="6" horiz-adv-x="1073" d="M72 463q0 262 153.5 504.5t399.5 388.5l303 -94q-145 -72 -276.5 -196t-192.5 -245q41 35 110 35q168 0 302.5 -121t134.5 -315q0 -199 -131 -324t-332 -125t-336 133.5t-135 358.5zM369 428q0 -84 52 -138t128 -54q70 0 118 50t48 128q0 82 -50 134t-128 52 q-57 0 -99.5 -23.5t-62.5 -72.5q-2 -10 -4 -32.5t-2 -43.5z" />
<glyph unicode="7" horiz-adv-x="1001" d="M55 1057v250h946l-536 -1307h-311l444 1057h-543z" />
<glyph unicode="8" horiz-adv-x="1089" d="M72 377q0 115 69.5 204t145.5 121q-68 33 -118 111t-50 170q0 158 116.5 256t305.5 98q190 0 308 -99t118 -261q0 -84 -50.5 -160t-117.5 -108q78 -33 148.5 -124t70.5 -208q0 -188 -129 -298t-344 -110q-211 0 -342 110.5t-131 297.5zM348 379q0 -72 56.5 -120 t132.5 -48q80 0 134 48t54 120q0 68 -60.5 118t-136.5 68q-70 -20 -125 -69.5t-55 -116.5zM393 967q0 -53 43 -95.5t117 -60.5q147 41 147 156q0 59 -44.5 98t-110.5 39q-61 0 -106.5 -39t-45.5 -98z" />
<glyph unicode="9" horiz-adv-x="1073" d="M68 889q0 199 131 323.5t331 124.5q201 0 336 -133t135 -358q0 -262 -153 -505t-399 -388l-304 94q145 72 276.5 196t192.5 244q-41 -35 -110 -34q-168 0 -302 120.5t-134 315.5zM358 895q0 -80 49.5 -133t127.5 -53q57 0 100 22.5t63 73.5q2 10 3 32.5t4 43.5 q0 82 -53.5 137t-129.5 55q-68 0 -116 -50t-48 -128z" />
<glyph unicode=":" horiz-adv-x="450" d="M55 139q0 39 64.5 103.5t105.5 64.5t105.5 -64.5t64.5 -103.5q0 -41 -63.5 -104.5t-106.5 -63.5q-41 0 -105.5 64.5t-64.5 103.5zM55 788q0 41 63.5 104.5t106.5 63.5q41 0 105.5 -64.5t64.5 -103.5t-64.5 -103t-105.5 -64t-105.5 64.5t-64.5 102.5z" />
<glyph unicode=";" horiz-adv-x="450" d="M37 -291q57 66 98 144.5t53 146.5q-37 6 -85 56t-48 85q0 43 64.5 104.5t105.5 61.5q37 0 103.5 -60.5t66.5 -105.5q0 -86 -81 -222t-181 -226zM55 788q0 41 63.5 104.5t106.5 63.5q41 0 105.5 -64.5t64.5 -103.5t-64.5 -103t-105.5 -64t-105.5 64.5t-64.5 102.5z" />
<glyph unicode="&#x3c;" horiz-adv-x="716" d="M53 567l381 383l170 -170l-211 -213l211 -213l-168 -168z" />
<glyph unicode="=" horiz-adv-x="925" d="M68 250v227h790v-227h-790zM68 653v228h790v-228h-790z" />
<glyph unicode="&#x3e;" horiz-adv-x="716" d="M113 354l211 213l-211 213l170 170l381 -381l-381 -383z" />
<glyph unicode="?" horiz-adv-x="831" d="M45 1333q115 94 291 94q195 0 309.5 -104t114.5 -276q0 -100 -42.5 -178t-148.5 -199q-43 -49 -64.5 -100.5t-21.5 -100.5q0 -45 6 -76l-245 51q-6 25 -10.5 48.5t-4.5 52.5q0 86 30 155.5t89.5 136t84 112.5t24.5 98q0 49 -39 86.5t-105 37.5q-68 0 -130 -26.5 t-115 -71.5zM203 141q0 39 64.5 103.5t105.5 64.5q43 0 106.5 -63.5t63.5 -104.5t-63.5 -106.5t-106.5 -65.5q-41 0 -105.5 66.5t-64.5 105.5z" />
<glyph unicode="@" horiz-adv-x="1560" d="M72 543q0 330 241.5 563t583.5 233q262 0 427 -156.5t165 -398.5q0 -203 -110.5 -356.5t-286.5 -153.5q-55 0 -98.5 35t-51.5 97q-90 -129 -260 -130q-94 0 -167 75t-73 200q0 213 145.5 343t323.5 130q78 0 137.5 -21.5t96.5 -60.5l-60 -391l-4 -37q0 -49 37 -49 q63 0 119.5 96t56.5 230q0 174 -115.5 273t-301.5 99q-246 0 -429.5 -179t-183.5 -439q0 -193 110.5 -295.5t278.5 -102.5q143 0 230 68l-25 -188q-33 -25 -92 -40.5t-131 -15.5q-252 0 -407.5 158t-155.5 414zM659 563q0 -96 82 -96q51 0 93.5 52t58.5 138l29 158 q-23 14 -50 14q-82 0 -147.5 -76.5t-65.5 -189.5z" />
<glyph unicode="A" horiz-adv-x="1288" d="M20 0l515 1317h219l514 -1317h-316l-102 272h-430l-101 -272h-299zM498 512h274l-94 262q-6 16 -18.5 56t-22.5 77q-4 -14 -19.5 -59t-25.5 -74z" />
<glyph unicode="B" horiz-adv-x="1116" d="M113 0v1307h438q160 0 271.5 -95.5t111.5 -250.5q0 -66 -28.5 -127.5t-80.5 -90.5q88 -29 158 -126t70 -211q0 -184 -129.5 -295t-317.5 -111h-493zM401 238h152q82 0 137 42t55 126q0 80 -57 124.5t-135 44.5h-152v-337zM401 809h101q61 0 102 31.5t41 99.5t-41 100.5 t-102 32.5h-101v-264z" />
<glyph unicode="C" horiz-adv-x="1214" d="M72 653q0 317 216 500.5t496 183.5q119 0 213.5 -21.5t157.5 -58.5l-22 -276q-57 37 -133 59.5t-179 22.5q-182 0 -305 -112.5t-123 -297.5q0 -182 125 -294.5t313 -112.5q104 0 184.5 20.5t137.5 57.5l-27 -285q-57 -33 -140 -51.5t-202 -18.5q-281 0 -496.5 183.5 t-215.5 500.5z" />
<glyph unicode="D" horiz-adv-x="1325" d="M113 0v1307h440q293 0 496.5 -178.5t203.5 -475.5q0 -295 -203.5 -474t-496.5 -179h-440zM418 272h98q180 0 300 98.5t120 282.5q0 180 -121 280.5t-299 100.5h-98v-762z" />
<glyph unicode="E" horiz-adv-x="972" d="M113 0v1307h761v-260h-444v-261h363v-264h-363v-262h502v-260h-819z" />
<glyph unicode="F" horiz-adv-x="923" d="M113 0v1307h780v-260h-463v-261h381v-264h-381v-522h-317z" />
<glyph unicode="G" horiz-adv-x="1378" d="M72 653q0 317 218 500.5t498 183.5q135 0 238.5 -27.5t177.5 -76.5l-24 -279q-68 49 -161 79t-198 30q-184 0 -309 -114.5t-125 -303.5q0 -180 121 -292.5t303 -112.5q113 0 178 39v184h-237v244h528v-603q-170 -135 -483 -135q-291 0 -508 183.5t-217 500.5z" />
<glyph unicode="H" horiz-adv-x="1363" d="M113 0v1307h317v-516h506v516h315v-1307h-315v518h-506v-518h-317z" />
<glyph unicode="I" horiz-adv-x="583" d="M133 0v1307h318v-1307h-318z" />
<glyph unicode="J" horiz-adv-x="634" d="M-96 -111q143 25 211.5 118t68.5 282v1018h318v-1047q0 -266 -130 -410.5t-331 -179.5z" />
<glyph unicode="K" horiz-adv-x="1198" d="M113 0v1307h317v-562l401 562h347l-457 -650l471 -657h-369l-393 539v-539h-317z" />
<glyph unicode="L" horiz-adv-x="972" d="M113 0v1307h317v-1035h524v-272h-841z" />
<glyph unicode="M" horiz-adv-x="1748" d="M92 0l113 1307h258l285 -549q45 -86 80.5 -164t50.5 -115q23 55 59.5 135t69.5 144l282 549h260l117 -1307h-311l-43 481q0 37 -6.5 117t-6.5 125q-53 -127 -114 -248l-246 -479h-127l-248 479q-61 119 -110 246q-8 -121 -17 -240l-41 -481h-305z" />
<glyph unicode="N" horiz-adv-x="1452" d="M113 0v1307h256l442 -488q45 -51 105.5 -120.5t107.5 -129.5l-2 246v492h317v-1321h-159l-508 557q-49 55 -117 134t-127 152l2 -276v-553h-317z" />
<glyph unicode="O" d="M72 655q0 303 208.5 492.5t493.5 189.5q283 0 494 -190.5t211 -491.5q0 -307 -209 -496.5t-496 -189.5q-283 0 -492.5 190.5t-209.5 495.5zM393 655q0 -178 114 -291.5t267 -113.5q152 0 267.5 113.5t115.5 291.5q0 176 -113.5 290t-269.5 114q-154 0 -267.5 -114 t-113.5 -290z" />
<glyph unicode="P" horiz-adv-x="1046" d="M113 0v1307h479q176 0 299 -107.5t123 -288.5q0 -180 -122 -288.5t-300 -108.5h-174v-514h-305zM418 764h129q68 0 116 37t48 110q0 68 -49 107t-115 39h-129v-293z" />
<glyph unicode="Q" d="M72 653q0 303 210 494.5t494 191.5q283 0 493 -191.5t210 -494.5q0 -215 -121 -382t-293 -222q35 -10 62.5 -22.5t88 -44t114.5 -45t102 -13.5q39 0 67.5 4t63.5 19l-164 -248q-10 -4 -24.5 -4h-22.5q-180 0 -316.5 81t-212 124t-139.5 75q-256 33 -434 215.5t-178 462.5 zM395 653q0 -174 114 -287.5t267 -113.5q152 0 265.5 111.5t113.5 289.5t-113.5 292t-265.5 114q-154 0 -267.5 -114t-113.5 -292z" />
<glyph unicode="R" horiz-adv-x="1193" d="M113 0v1307h487q176 0 299 -107.5t123 -288.5q0 -113 -55.5 -199.5t-145.5 -127.5l416 -584h-354l-353 514h-112v-514h-305zM418 764h135q68 0 116 37t48 110q0 68 -49 107t-115 39h-135v-293z" />
<glyph unicode="S" horiz-adv-x="1028" d="M59 385q187 -149 407 -149h3q182 0 182 126q0 59 -42 95.5t-277.5 119t-235.5 365.5q0 170 122 283.5t331 113.5q111 0 188.5 -21.5t130.5 -55.5l-24 -267q-49 33 -125 57.5t-146 24.5q-80 0 -122.5 -31.5t-42.5 -80.5q0 -47 42 -80t184 -80t239.5 -154.5t97.5 -257.5 q0 -197 -126 -310.5t-362 -113.5q-121 0 -221 29t-174 82z" />
<glyph unicode="T" horiz-adv-x="1144" d="M20 1055v252h1104v-254h-393v-1053h-315v1055h-396z" />
<glyph unicode="U" horiz-adv-x="1357" d="M113 446v861h317v-832q0 -100 68.5 -162.5t183.5 -62.5t184.5 61.5t69.5 163.5v832h309v-861q0 -213 -162.5 -344t-404.5 -131t-403.5 130t-161.5 345z" />
<glyph unicode="V" horiz-adv-x="1210" d="M-6 1307h325l205 -576q23 -61 44.5 -133t41.5 -158q20 74 41 143.5t49 147.5l205 576h301l-475 -1315h-260z" />
<glyph unicode="W" horiz-adv-x="1849" d="M4 1307h305l170 -529q16 -49 37 -122.5t33 -139.5q39 154 74 262l172 529h274l170 -527q33 -104 68 -264q31 133 73 262l174 529h285l-436 -1315h-203l-190 577q-29 88 -47.5 149.5t-38.5 141.5q-18 -63 -49 -162.5t-41 -128.5l-191 -577h-203z" />
<glyph unicode="X" horiz-adv-x="1251" d="M25 0l419 664l-399 643h348l164 -265q12 -18 36.5 -63t35.5 -68q43 74 49 85.5t29 45.5l163 265h330l-397 -635l418 -672h-349l-174 283l-80 143q-18 -33 -31.5 -54.5t-54.5 -88.5l-178 -283h-329z" />
<glyph unicode="Y" horiz-adv-x="1275" d="M-4 1307h338l215 -316q55 -82 94 -155l102 155l216 316h315l-485 -723v-584h-308v578z" />
<glyph unicode="Z" horiz-adv-x="1071" d="M45 0v76l350 641q49 90 93 167t92 150l-502 2v271h930v-76l-353 -643q-29 -53 -99.5 -174t-82.5 -142l557 -2v-270h-985z" />
<glyph unicode="[" horiz-adv-x="702" d="M96 -459v1905h555v-248h-260v-1409h260v-248h-555z" />
<glyph unicode="\" horiz-adv-x="1333" d="M59 1243l174 143l1041 -1282l-176 -149z" />
<glyph unicode="]" horiz-adv-x="702" d="M57 -211h262v1409h-262v248h555v-1905h-555v248z" />
<glyph unicode="^" horiz-adv-x="819" d="M53 1171q100 45 192.5 125t164.5 187q70 -100 166 -184.5t192 -127.5l-150 -147q-63 29 -110 60.5t-98 82.5q-47 -47 -96.5 -80.5t-110.5 -62.5z" />
<glyph unicode="_" horiz-adv-x="1126" d="M-2 -244h1132v-229h-1132v229z" />
<glyph unicode="`" horiz-adv-x="921" d="M227 1186l52 215q92 -88 210.5 -148.5t247.5 -97.5l-133 -131q-115 29 -200 64.5t-177 97.5z" />
<glyph unicode="a" horiz-adv-x="991" d="M59 276q0 125 87 206t229 96l184 18v33q0 45 -35 70.5t-110 25.5q-78 0 -152 -18.5t-121 -44.5l-22 229q51 29 137 47t174 18q197 0 308.5 -97t111.5 -275v-267q0 -121 106 -137l-104 -209q-63 0 -115.5 28t-81.5 77q-96 -104 -260 -105q-145 0 -240.5 83t-95.5 222z M322 272q0 -39 27.5 -64.5t70.5 -25.5q57 0 102 40t45 97v87l-125 -13q-61 -6 -90.5 -40t-29.5 -81z" />
<glyph unicode="b" horiz-adv-x="1075" d="M102 70v1388h291v-520q31 12 53.5 15t59.5 3q209 0 358.5 -134t149.5 -343q0 -236 -150.5 -372t-392.5 -136q-115 0 -205 27t-164 72zM393 250q14 -6 38 -12.5t61 -6.5q106 0 169.5 65.5t63.5 172.5q0 100 -66.5 164.5t-154.5 64.5q-27 0 -60.5 -8t-50.5 -18v-422z" />
<glyph unicode="c" horiz-adv-x="937" d="M61 463q0 223 150.5 358t361.5 135q94 0 165 -16t130 -49l-24 -260q-100 59 -230 59q-109 0 -179 -61.5t-70 -165.5q0 -102 75.5 -166t188.5 -64q121 0 229 58l-24 -268q-45 -23 -112 -37.5t-147 -14.5q-213 0 -363.5 135.5t-150.5 356.5z" />
<glyph unicode="d" horiz-adv-x="1128" d="M61 453q0 223 142.5 363t357.5 140q57 0 100.5 -10t73.5 -28v540h291v-1458h-235l-7 68q-72 -92 -256 -93q-178 0 -322.5 132.5t-144.5 345.5zM350 467q0 -100 63.5 -165.5t153.5 -65.5q104 0 168 63v342q-27 27 -70.5 42t-97.5 15q-92 0 -154.5 -64.5t-62.5 -166.5z" />
<glyph unicode="e" horiz-adv-x="1017" d="M59 469q0 219 140.5 353t343.5 134q186 0 300.5 -108.5t114.5 -259.5q0 -47 -10 -92l-121 -119h-462q20 -72 88.5 -124t183.5 -52q147 0 268 71l-26 -247q-55 -27 -120 -40.5t-157 -13.5q-231 0 -387 137.5t-156 360.5zM354 569h328l2 21q0 57 -39 98t-102 41 q-70 0 -121 -43t-68 -117z" />
<glyph unicode="f" horiz-adv-x="751" d="M23 682v246h143v47q0 246 134 373t357 127q90 0 160 -27l-20 -250q-55 25 -135 25q-96 0 -148.5 -56.5t-52.5 -154.5v-84h237l-20 -246h-217v-682h-295v682h-143z" />
<glyph unicode="g" horiz-adv-x="993" d="M45 -137q0 96 50 165.5t130 96.5l-106 106q6 41 37.5 80t68.5 60q-57 39 -93 102.5t-36 138.5q0 154 102.5 250t278.5 96q47 0 68.5 -3t60.5 -13t70 -14t72 -4q92 0 161 34l21 -235q-10 -8 -37 -14.5t-53 -6.5q16 -29 16 -79q0 -131 -85 -222.5t-220 -103.5 q-66 0 -66 -37q0 -20 25 -29l149 -51q139 -47 210 -128t71 -206q0 -145 -122.5 -240t-321.5 -95t-325 101t-126 251zM305 -141q0 -55 48 -93t136 -38q82 0 131.5 33.5t49.5 80.5q-1 86 -103 115l-123 35q-61 0 -100 -37t-39 -96zM346 625q0 -51 38 -87t93 -36t93 35.5 t38 87.5q0 51 -38 87t-93 36t-93 -36t-38 -87z" />
<glyph unicode="h" horiz-adv-x="1085" d="M102 0v1458h297v-592q92 86 250 86q154 0 249 -91t95 -243v-618h-301v553q0 55 -37 92t-104 37q-68 0 -110 -38t-42 -95v-549h-297z" />
<glyph unicode="i" horiz-adv-x="538" d="M115 1233q0 39 58 97.5t95 58.5q39 0 97.5 -58.5t58.5 -97.5t-57.5 -96.5t-98.5 -57.5q-37 0 -95 58.5t-58 95.5zM119 0v928h303v-928h-303z" />
<glyph unicode="j" horiz-adv-x="536" d="M-57 -283q176 35 176 248v963h301v-983q0 -176 -97 -291.5t-251 -140.5zM113 1233q0 39 58 97.5t97 58.5q37 0 95.5 -58.5t58.5 -97.5t-57.5 -96.5t-96.5 -57.5t-97 58.5t-58 95.5z" />
<glyph unicode="k" horiz-adv-x="1028" d="M102 0v1458h297v-909l281 379h317l-319 -445l348 -483h-350l-277 375v-375h-297z" />
<glyph unicode="l" horiz-adv-x="583" d="M123 295v1163h297v-1141q0 -63 30.5 -100t84.5 -49l-134 -209q-104 0 -191 91t-87 245z" />
<glyph unicode="m" horiz-adv-x="1642" d="M92 0v928h264l9 -92q39 51 107.5 83.5t162.5 32.5q88 0 155.5 -32.5t108.5 -85.5q43 51 127 84.5t182 33.5q160 0 251 -89t91 -230v-633h-301v571q0 49 -35.5 79t-97.5 30q-63 0 -103 -31t-40 -82v-567h-301v571q0 49 -36 79t-101 30q-61 0 -101.5 -32t-40.5 -81v-567 h-301z" />
<glyph unicode="n" horiz-adv-x="1079" d="M92 0v928h264l9 -92q41 57 109.5 86.5t168.5 29.5q154 0 249 -91t95 -243v-618h-301v553q0 55 -37 92t-104 37q-68 0 -110 -38t-42 -95v-549h-301z" />
<glyph unicode="o" horiz-adv-x="1132" d="M61 463q0 215 145.5 354t360.5 139q213 0 358.5 -139t145.5 -354q0 -213 -145.5 -352.5t-358.5 -139.5t-359.5 138.5t-146.5 353.5zM352 463q0 -102 62.5 -169t152.5 -67q88 0 151.5 67.5t63.5 168.5q0 102 -62.5 170.5t-152.5 68.5q-88 0 -151.5 -67.5t-63.5 -171.5z " />
<glyph unicode="p" horiz-adv-x="1128" d="M102 -473v1401h236l8 -68q35 45 100.5 68.5t153.5 23.5q178 0 322.5 -132t144.5 -345q0 -223 -142.5 -363.5t-357.5 -140.5q-57 0 -100 10.5t-74 28.5v-483h-291zM393 287q31 -27 73 -42.5t95 -15.5q94 0 155.5 65.5t61.5 166.5q0 100 -61.5 165.5t-155.5 65.5 q-100 0 -168 -63v-342z" />
<glyph unicode="q" horiz-adv-x="1075" d="M61 469q0 219 146.5 353t357.5 134q135 0 238 -49l82 47h88v-1427h-291v463q-20 -6 -45 -12.5t-66 -6.5q-217 0 -363.5 138.5t-146.5 359.5zM350 467q0 -106 65.5 -172t155.5 -66q70 0 111 27v414q-47 26 -112 26h-5q-90 0 -152.5 -64.5t-62.5 -164.5z" />
<glyph unicode="r" horiz-adv-x="774" d="M109 0v928h276l8 -146q43 86 123 124t201 38l22 -260h-24q-131 0 -219 -79t-88 -238v-367h-299z" />
<glyph unicode="s" horiz-adv-x="804" d="M53 311q57 -51 142.5 -82.5t171.5 -31.5q45 0 71.5 18t26.5 49q0 53 -119 95t-190.5 120t-71.5 185q0 129 94 210.5t248 81.5q84 0 148.5 -17t105.5 -42l-23 -227q-37 25 -94 44t-119 19q-86 0 -86 -65q0 -49 193.5 -111.5t193.5 -288.5q0 -129 -93 -213t-273 -84 q-94 0 -170 21.5t-129 56.5z" />
<glyph unicode="t" horiz-adv-x="796" d="M20 682v246h164v180l287 109v-289h291l-23 -246h-264v-336q0 -51 31 -79.5t84 -28.5q59 0 96 14l-22 -246q-47 -22 -134 -22h-8q-152 0 -248 90t-96 229v379h-158z" />
<glyph unicode="u" horiz-adv-x="1079" d="M92 309v619h301v-553q0 -55 37 -92t105 -37t109.5 38t41.5 95v549h301v-928h-264l-8 92q-41 -57 -109.5 -87t-169.5 -30q-154 0 -249 91.5t-95 242.5z" />
<glyph unicode="v" horiz-adv-x="1001" d="M31 928h291l129 -353q6 -16 26.5 -84.5t26.5 -91.5l57 176l131 353h279l-359 -936h-225z" />
<glyph unicode="w" horiz-adv-x="1499" d="M41 928h274l115 -350q12 -39 24.5 -85.5t20.5 -89.5l51 175l115 350h227l117 -348q10 -33 22.5 -81t22.5 -96q16 61 26.5 97.5t24.5 79.5l115 348h262l-323 -936h-205l-123 366q-14 43 -28.5 90.5t-26.5 98.5q-14 -51 -32 -107.5t-26 -79.5l-123 -368h-206z" />
<glyph unicode="x" horiz-adv-x="944" d="M31 0l274 463l-264 465h299l96 -164q14 -27 23.5 -45.5t17.5 -36.5l49 82l95 164h280l-262 -447l274 -481h-301l-104 178l-43 92l-51 -92l-103 -178h-280z" />
<glyph unicode="y" horiz-adv-x="1034" d="M31 928h297l137 -363q29 -74 57 -180q14 45 27.5 86t32.5 92l139 365h283l-326 -848q-96 -250 -216 -390.5t-284 -181.5l-123 195q111 37 183.5 112.5t138.5 231.5z" />
<glyph unicode="z" horiz-adv-x="894" d="M57 0v57l224 414q55 106 120 205l-309 4v248h709v-58l-226 -415q-31 -59 -47 -86t-73 -117l376 -4v-248h-774z" />
<glyph unicode="{" horiz-adv-x="768" d="M25 492q96 63 137 161.5t41 247.5q0 254 126 398.5t359 144.5l37 -240q-115 0 -172 -75.5t-57 -202.5q0 -303 -158 -434q158 -127 158 -435q0 -127 56 -201.5t173 -74.5l-37 -242q-233 0 -359 144.5t-126 400.5q0 145 -40 244.5t-138 163.5z" />
<glyph unicode="|" horiz-adv-x="485" d="M129 -473v1931h227v-1931h-227z" />
<glyph unicode="}" horiz-adv-x="768" d="M45 -219q117 0 172 74.5t55 201.5q0 307 158 435q-158 131 -158 434q0 129 -55 203.5t-172 74.5l37 240q231 0 358 -144.5t127 -398.5q0 -145 41 -245.5t137 -163.5q-96 -61 -137 -161t-41 -247q0 -254 -127 -399.5t-358 -145.5z" />
<glyph unicode="~" horiz-adv-x="831" d="M84 420l51 203q100 59 165 84.5t153 25.5l24 -141q133 20 273 104l-52 -200q-84 -55 -157.5 -84t-159.5 -29l-25 139q-135 -18 -272 -102z" />
<glyph unicode="&#xa1;" horiz-adv-x="548" d="M100 1169q0 41 63.5 104.5t106.5 63.5q41 0 105.5 -64.5t64.5 -103.5t-64.5 -103.5t-105.5 -64.5t-105.5 64.5t-64.5 103.5zM117 -88l37 1003l243 -51l35 -952h-315z" />
<glyph unicode="&#xa2;" horiz-adv-x="937" d="M61 834q0 203 127 334.5t316 156.5v184h155v-186q121 -12 209 -59l-24 -263q-104 61 -230 62q-106 0 -177.5 -63.5t-71.5 -165.5t75.5 -165t188.5 -63q119 0 229 56l-24 -269q-70 -35 -175 -47v-178h-155v178q-188 25 -315.5 156t-127.5 332z" />
<glyph unicode="&#xa3;" horiz-adv-x="899" d="M23 565v164h143v105q0 246 133 372.5t356 126.5q43 0 82 -8t70 -22l-21 -246q-59 25 -141 24q-80 0 -131 -57t-51 -141v-154h260l-14 -164h-246v-69q0 -70 -11.5 -133.5t-31.5 -106.5q61 10 153 10q152 0 275 -39l-17 -250q-47 20 -123.5 33t-156.5 13 q-88 0 -155.5 -10.5t-119.5 -30.5l-213 112q51 78 77 177.5t26 232.5v61h-143z" />
<glyph unicode="&#xa4;" horiz-adv-x="999" d="M70 272l129 125q-47 76 -47 170q0 88 43 164l-125 129l131 131l125 -125q78 49 174 49q94 0 170 -47l125 125l129 -131l-123 -125q47 -76 47 -170q0 -96 -49 -174l125 -125l-131 -131l-127 125q-80 -43 -166 -43q-90 0 -170 47l-129 -127zM322 567q0 -74 51 -127t127 -53 t129 51t53 129q0 74 -54 126t-128 52q-76 0 -127 -51t-51 -127z" />
<glyph unicode="&#xa5;" horiz-adv-x="1263" d="M-4 1307h334l215 -316q49 -68 94 -155q25 41 41 65.5t61 89.5l215 316h308l-310 -457h129v-166h-239l-66 -98v-29h305v-166h-305v-391h-295v391h-307v166h307v18l-69 109h-238v166h127z" />
<glyph unicode="&#xa6;" horiz-adv-x="485" d="M129 371h227v-844h-227v844zM129 614v844h227v-844h-227z" />
<glyph unicode="&#xa7;" horiz-adv-x="970" d="M84 946q0 168 119 278.5t319 110.5q119 0 191.5 -18.5t134.5 -54.5l-25 -267q-55 37 -126.5 58.5t-143.5 21.5q-82 0 -123 -30.5t-41 -81.5q0 -43 33 -76l436 -426l-37 -322q35 -51 54.5 -102t19.5 -119q0 -168 -118.5 -278.5t-319.5 -110.5q-119 0 -190.5 18.5 t-133.5 57.5l23 264q59 -37 127.5 -58.5t144.5 -21.5q80 0 121 32t41 81q0 16 -7.5 36.5t-23.5 38.5l-438 426l37 322q-35 51 -54.5 102.5t-19.5 118.5zM276 573l410 -401l16 125l-411 397z" />
<glyph unicode="&#xa8;" horiz-adv-x="921" d="M141 1159q0 31 51.5 84t83.5 53q35 0 85.5 -52t50.5 -85q0 -31 -52.5 -83t-83.5 -52q-33 0 -84 51t-51 84zM508 1159q0 31 51 84t84 53t85 -52t52 -85q0 -31 -52 -83t-85 -52t-84 51t-51 84z" />
<glyph unicode="&#xa9;" horiz-adv-x="1220" d="M61 512q0 240 157 392.5t392 152.5q233 0 390 -152.5t157 -392.5q0 -238 -157 -390.5t-390 -152.5t-391 153.5t-158 389.5zM207 512q0 -176 111.5 -294t291.5 -118q176 0 290 118t114 294t-114 294t-290 118q-180 0 -291.5 -116t-111.5 -296zM350 510q0 129 89 210 t214 81q104 0 168 -49l-14 -168q-53 39 -137 39q-49 0 -85 -32t-36 -83t37 -84t92 -33q41 0 67.5 7.5t67.5 35.5l-18 -180q-55 -35 -140 -35q-127 0 -216 81t-89 210z" />
<glyph unicode="&#xaa;" horiz-adv-x="817" d="M63 803q0 94 69 159.5t179 75.5l146 13v22q0 33 -27 51.5t-84 18.5q-61 0 -121.5 -14.5t-97.5 -36.5l-16 192q41 25 109.5 39t139.5 14q158 0 249 -78.5t91 -224.5v-198q0 -94 91 -107l-89 -176q-55 0 -97 19.5t-66 56.5q-35 -35 -90.5 -55.5t-114.5 -20.5 q-117 0 -194 66.5t-77 183.5zM274 295q0 33 52.5 85t83.5 52q33 0 84 -51t51 -86q0 -31 -52 -83t-83 -52q-33 0 -84.5 51t-51.5 84zM283 793q0 -31 19.5 -50.5t51.5 -19.5q43 0 77 29.5t34 76.5v66l-98 -8q-41 -6 -62.5 -32t-21.5 -62z" />
<glyph unicode="&#xab;" horiz-adv-x="1007" d="M-16 567q104 72 197 171.5t159 207.5l149 -149q-31 -61 -73.5 -120t-96.5 -110q51 -49 95.5 -107.5t74.5 -121.5l-149 -150q-70 115 -159 211.5t-197 167.5zM457 567q109 74 200 170.5t158 208.5l150 -149q-29 -59 -75 -122t-93 -108q47 -45 93 -107.5t75 -121.5 l-150 -150q-68 109 -160 208.5t-198 170.5z" />
<glyph unicode="&#xac;" horiz-adv-x="1095" d="M68 451v229h919v-442h-239v213h-680z" />
<glyph unicode="&#xad;" horiz-adv-x="671" d="M68 451v229h536v-229h-536z" />
<glyph unicode="&#xae;" horiz-adv-x="962" d="M61 922q0 180 120 297.5t300 117.5q178 0 299 -116.5t121 -298.5q0 -178 -121 -297t-299 -119q-180 0 -300 117.5t-120 298.5zM158 922q0 -139 92 -231.5t231 -92.5q137 0 229.5 92t92.5 232q0 141 -92.5 233t-229.5 92q-141 0 -232 -91t-91 -234zM332 680v485h155 q68 0 119 -42t51 -111q0 -37 -19.5 -71t-49.5 -52l110 -154l-96 -59l-123 184h-37v-180h-110zM442 954h35q63 0 64 58q-1 57 -64 57h-35v-115z" />
<glyph unicode="&#xb0;" horiz-adv-x="552" d="M45 1112q0 96 68.5 162.5t162.5 66.5q96 0 164 -65.5t68 -163.5q0 -94 -68 -161.5t-164 -67.5q-92 0 -161.5 67.5t-69.5 161.5zM164 1112q0 -49 31.5 -81t80.5 -32t81 32t32 81t-32 81t-81 32t-80.5 -32t-31.5 -81z" />
<glyph unicode="&#xb1;" horiz-adv-x="1941" d="M23 682v246h143v47q0 213 118.5 340t325.5 127q68 0 103 -7.5t82 -27.5l-25 -250q-27 14 -63.5 23.5t-81.5 9.5q-70 0 -117 -53.5t-47 -132.5v-76h362v24q0 246 148.5 384.5t414.5 138.5q106 0 214 -33t178 -90v-1028q0 -61 32.5 -98.5t83.5 -49.5l-114 -213 q-117 0 -208 91t-91 245v901q-47 27 -144 27q-98 0 -157.5 -65.5t-59.5 -176.5v-57h185l-21 -246h-164v-682h-297v682h-362v-682h-295v682h-143z" />
<glyph unicode="&#xb2;" horiz-adv-x="722" d="M39 502v55q154 129 255 262t101 209q0 57 -35.5 91t-99.5 34q-47 0 -89 -11.5t-83 -33.5l-18 172q43 20 101 33.5t114 13.5q154 0 240.5 -76.5t86.5 -218.5q0 -80 -60 -180t-153 -184h250v-166h-610z" />
<glyph unicode="&#xb3;" horiz-adv-x="616" d="M59 692q31 -18 73 -27.5t85 -9.5q53 0 92 30t39 79q0 43 -28.5 67.5t-79.5 24.5l-50 -6l-14 154q45 10 76 34.5t31 55.5q0 27 -20.5 43t-55.5 16q-63 0 -117 -31l-18 174q72 31 168 31q111 0 183.5 -56.5t72.5 -144.5q0 -49 -25 -90t-65 -61q59 -14 108 -71.5t49 -131.5 q0 -135 -91 -210t-241 -75q-39 0 -84 8.5t-69 22.5z" />
<glyph unicode="&#xb4;" horiz-adv-x="921" d="M180 1155q123 35 246 98.5t213 147.5l49 -215q-88 -61 -172 -96t-203 -66z" />
<glyph unicode="&#xb5;" horiz-adv-x="1126" d="M80 0v928h967v-928h-967zM139 59h387q-45 20 -74 52t-49 73l-264 555v-680zM201 786l493 -348q-86 -35 -136 -93t-50 -116q0 -63 26.5 -102t79.5 -68h373v727h-786z" />
<glyph unicode="&#xb6;" horiz-adv-x="1030" d="M63 905q0 184 132.5 298t312.5 114h475v-250h-158v-1122q0 -176 -97 -292t-251 -140l-129 204q176 35 176 248v533h-16q-178 0 -311.5 112.5t-133.5 294.5z" />
<glyph unicode="&#xb8;" horiz-adv-x="921" d="M227 -442l21 133q35 -25 64.5 -33t68.5 -8q35 0 59.5 22.5t24.5 57.5q0 37 -25.5 58.5t-66.5 21.5q-43 0 -72 -7l31 197h102l-6 -55q78 0 137.5 -61.5t59.5 -151.5q0 -102 -71 -160.5t-167 -58.5q-88 0 -160 45z" />
<glyph unicode="&#xb9;" horiz-adv-x="505" d="M45 1124l21 174l321 29v-825h-205v635z" />
<glyph unicode="&#xba;" horiz-adv-x="931" d="M63 946q0 170 117 280.5t287 110.5t286.5 -110.5t116.5 -280.5q0 -174 -115.5 -283.5t-287.5 -109.5t-288 109.5t-116 283.5zM315 946q0 -74 44 -124t108 -50q63 0 107 50t44 124t-44 122t-107 48t-107.5 -48t-44.5 -122zM334 295q0 33 50 85t81 52q33 0 85 -52t52 -85 q0 -31 -52 -83t-85 -52q-31 0 -81 52t-50 83z" />
<glyph unicode="&#xbb;" horiz-adv-x="1007" d="M43 338q29 59 74 120.5t96 108.5q-106 100 -170 230l150 149q68 -111 158.5 -208t199.5 -171q-109 -74 -197.5 -167t-160.5 -212zM518 338q29 59 75 121.5t93 107.5q-47 45 -93 107.5t-75 122.5l150 149q141 -229 356 -379q-109 -74 -196.5 -168t-159.5 -211z" />
<glyph unicode="&#xbc;" horiz-adv-x="1497" d="M45 1124l21 174l321 29v-825h-205v635zM141 66l1030 1269l111 -92l-1028 -1272zM774 362l365 451h196v-446h97v-152h-97v-215h-194v215h-338zM967 367h174v157v31.5t8 46.5l-6 2q-20 -45 -53 -84z" />
<glyph unicode="&#xbd;" horiz-adv-x="1622" d="M45 1124l21 174l321 29v-825h-205v635zM141 66l1030 1269l111 -92l-1028 -1272zM958 0v55q156 131 256.5 262.5t100.5 208.5q0 57 -36 91t-99 34q-47 0 -89 -11t-83 -34l-19 172q43 23 100.5 36t114.5 13q152 0 239 -78.5t87 -218.5q0 -80 -61.5 -181t-151.5 -183h252 v-166h-611z" />
<glyph unicode="&#xbe;" horiz-adv-x="1554" d="M59 692q31 -18 73 -27.5t85 -9.5q53 0 92 30t39 79q0 43 -28.5 67.5t-79.5 24.5l-50 -6l-14 154q45 10 76 34.5t31 55.5q0 27 -20.5 43t-55.5 16q-63 0 -117 -31l-18 174q72 31 168 31q111 0 183.5 -56.5t72.5 -144.5q0 -49 -25 -90t-65 -61q59 -14 108 -71.5t49 -131.5 q0 -135 -91 -210t-241 -75q-39 0 -84 8.5t-69 22.5zM211 66l1030 1269l111 -92l-1028 -1272zM844 362l364 451h197v-446h96v-152h-96v-215h-195v215h-338zM1038 367h172v157q0 18 3.5 42t5.5 36l-58 -82z" />
<glyph unicode="&#xbf;" horiz-adv-x="831" d="M72 262q0 100 43 182t115.5 162t94 133.5t21.5 100.5v34q0 16 -4 41l246 -51q6 -25 10 -48t4 -52q0 -82 -30.5 -154.5t-90 -140.5t-83 -112t-23.5 -95q0 -49 39 -87t104 -38q68 0 128.5 26.5t115.5 72.5l24 -261q-114 -94 -290 -94q-195 0 -309.5 104.5t-114.5 276.5z M287 1167q0 43 64.5 107.5t107.5 64.5q41 0 105.5 -66.5t64.5 -105.5t-64.5 -103.5t-105.5 -64.5t-106.5 63.5t-65.5 104.5z" />
<glyph unicode="&#xc0;" horiz-adv-x="1288" d="M20 0l515 1317h219l514 -1317h-316l-102 272h-430l-101 -272h-299zM319 1596l52 215q92 -88 210.5 -148.5t247.5 -97.5l-133 -131q-115 29 -200 64.5t-177 97.5zM498 512h274l-94 262q-6 16 -18.5 56t-22.5 77q-4 -14 -19.5 -59t-25.5 -74z" />
<glyph unicode="&#xc1;" horiz-adv-x="1288" d="M20 0l515 1317h219l514 -1317h-316l-102 272h-430l-101 -272h-299zM456 1565q123 35 246 98.5t213 147.5l49 -215q-88 -61 -172 -96t-203 -66zM498 512h274l-94 262q-6 16 -18.5 56t-22.5 77q-4 -14 -19.5 -59t-25.5 -74z" />
<glyph unicode="&#xc2;" horiz-adv-x="1288" d="M20 0l515 1317h219l514 -1317h-316l-102 272h-430l-101 -272h-299zM336 1559q84 39 163.5 107.5t141.5 158.5q59 -90 140 -158.5t165 -107.5l-127 -125q-61 29 -97 52.5t-81 70.5q-39 -39 -82 -68.5t-96 -54.5zM498 512h274l-94 262q-6 16 -18.5 56t-22.5 77 q-4 -14 -19.5 -59t-25.5 -74z" />
<glyph unicode="&#xc3;" horiz-adv-x="1288" d="M20 0l515 1317h219l514 -1317h-316l-102 272h-430l-101 -272h-299zM316 1471l51 203q100 59 166 84.5t154 25.5l22 -141q133 20 272 104l-49 -200q-88 -57 -159.5 -85t-159.5 -28l-25 139q-135 -18 -272 -102zM498 512h274l-94 262q-6 16 -18.5 56t-22.5 77 q-4 -14 -19.5 -59t-25.5 -74z" />
<glyph unicode="&#xc4;" horiz-adv-x="1288" d="M20 0l515 1317h219l514 -1317h-316l-102 272h-430l-101 -272h-299zM327 1569q0 31 51.5 84t83.5 53q35 0 85.5 -52t50.5 -85q0 -31 -52.5 -83t-83.5 -52q-33 0 -84 51t-51 84zM498 512h274l-94 262q-6 16 -18.5 56t-22.5 77q-4 -14 -19.5 -59t-25.5 -74zM694 1569 q0 31 51 84t84 53t85 -52t52 -85q0 -31 -52 -83t-85 -52t-84 51t-51 84z" />
<glyph unicode="&#xc5;" horiz-adv-x="1288" d="M20 0l515 1317h219l514 -1317h-316l-102 272h-430l-101 -272h-299zM387 1657q0 106 75.5 180t182.5 74q104 0 180 -73.5t76 -180.5q0 -102 -76 -178t-180 -76q-106 0 -182 74t-76 180zM498 512h274l-94 262q-6 16 -18.5 56t-22.5 77q-4 -14 -19.5 -59t-25.5 -74z M520 1657q0 -53 33.5 -89t91.5 -36q55 0 90 35t35 90t-35 90t-90 35t-90 -34.5t-35 -90.5z" />
<glyph unicode="&#xc6;" horiz-adv-x="1699" d="M10 0l758 1307h834v-260h-447v-261h365v-264h-365v-262h502v-260h-795v272h-383l-155 -272h-314zM602 516h260v348l6 174q-20 -47 -35.5 -83t-48.5 -95z" />
<glyph unicode="&#xc7;" horiz-adv-x="1214" d="M72 653q0 317 216 500.5t496 183.5q119 0 213.5 -21.5t157.5 -58.5l-22 -276q-57 37 -133 59.5t-179 22.5q-182 0 -305 -112.5t-123 -297.5q0 -182 125 -294.5t313 -112.5q104 0 184.5 20.5t137.5 57.5l-27 -285q-55 -33 -138 -51.5t-200 -18.5l-4 -24q80 0 139.5 -61.5 t59.5 -151.5q0 -102 -70.5 -160.5t-167.5 -58.5q-92 0 -159 45l20 133q33 -25 62.5 -33t68.5 -8q37 0 60.5 22.5t23.5 57.5q0 37 -25.5 58.5t-66.5 21.5t-70 -7l27 172q-254 33 -434 211.5t-180 466.5z" />
<glyph unicode="&#xc8;" horiz-adv-x="972" d="M113 0v1307h761v-260h-444v-261h363v-264h-363v-262h502v-260h-819zM182 1596l52 215q92 -88 210.5 -148.5t247.5 -97.5l-133 -131q-115 29 -200 64.5t-177 97.5z" />
<glyph unicode="&#xc9;" horiz-adv-x="972" d="M113 0v1307h761v-260h-444v-261h363v-264h-363v-262h502v-260h-819zM321 1565q123 35 246 98.5t213 147.5l49 -215q-88 -61 -172 -96t-203 -66z" />
<glyph unicode="&#xca;" horiz-adv-x="972" d="M113 0v1307h761v-260h-444v-261h363v-264h-363v-262h502v-260h-819zM213 1559q84 39 163.5 107.5t141.5 158.5q59 -90 140 -158.5t165 -107.5l-127 -125q-61 29 -97 52.5t-81 70.5q-39 -39 -82 -68.5t-96 -54.5z" />
<glyph unicode="&#xcb;" horiz-adv-x="972" d="M113 0v1307h761v-260h-444v-261h363v-264h-363v-262h502v-260h-819zM192 1569q0 31 51.5 84t83.5 53q35 0 85.5 -52t50.5 -85q0 -31 -52.5 -83t-83.5 -52q-33 0 -84 51t-51 84zM559 1569q0 31 51 84t84 53t85 -52t52 -85q0 -31 -52 -83t-85 -52t-84 51t-51 84z" />
<glyph unicode="&#xcc;" horiz-adv-x="583" d="M0 1596l52 215q92 -88 210.5 -148.5t247.5 -97.5l-133 -131q-115 29 -200 64.5t-177 97.5zM133 0v1307h318v-1307h-318z" />
<glyph unicode="&#xcd;" horiz-adv-x="583" d="M74 1565q123 35 246 98.5t213 147.5l49 -215q-88 -61 -172 -96t-203 -66zM133 0v1307h318v-1307h-318z" />
<glyph unicode="&#xce;" horiz-adv-x="583" d="M-14 1559q84 39 163.5 107.5t141.5 158.5q59 -90 140 -158.5t165 -107.5l-127 -125q-61 29 -97 52.5t-81 70.5q-39 -39 -82 -68.5t-96 -54.5zM133 0v1307h318v-1307h-318z" />
<glyph unicode="&#xcf;" horiz-adv-x="583" d="M-27 1569q0 31 51.5 84t83.5 53q35 0 85.5 -52t50.5 -85q0 -31 -52.5 -83t-83.5 -52q-33 0 -84 51t-51 84zM133 0v1307h318v-1307h-318zM340 1569q0 31 51 84t84 53t85 -52t52 -85q0 -31 -52 -83t-85 -52t-84 51t-51 84z" />
<glyph unicode="&#xd0;" horiz-adv-x="1368" d="M4 545v223h152v539h440q293 0 496.5 -178.5t203.5 -475.5q0 -295 -203.5 -474t-496.5 -179h-440v545h-152zM461 272h98q180 0 300 98.5t120 282.5q0 180 -121 280.5t-299 100.5h-98v-266h207l-35 -223h-172v-273z" />
<glyph unicode="&#xd1;" horiz-adv-x="1452" d="M113 0v1307h256l442 -488q45 -51 105.5 -120.5t107.5 -129.5l-2 246v492h317v-1321h-159l-508 557q-49 55 -117 134t-127 152l2 -276v-553h-317zM385 1471l51 203q100 59 166 84.5t154 25.5l22 -141q133 20 272 104l-49 -200q-88 -57 -159.5 -85t-159.5 -28l-25 139 q-135 -18 -272 -102z" />
<glyph unicode="&#xd2;" d="M72 655q0 303 208.5 492.5t493.5 189.5q283 0 494 -190.5t211 -491.5q0 -307 -209 -496.5t-496 -189.5q-283 0 -492.5 190.5t-209.5 495.5zM393 655q0 -178 114 -291.5t267 -113.5q152 0 267.5 113.5t115.5 291.5q0 176 -113.5 290t-269.5 114q-154 0 -267.5 -114 t-113.5 -290zM438 1596l52 215q92 -88 210.5 -148.5t247.5 -97.5l-133 -131q-115 29 -200 64.5t-177 97.5z" />
<glyph unicode="&#xd3;" d="M72 655q0 303 208.5 492.5t493.5 189.5q283 0 494 -190.5t211 -491.5q0 -307 -209 -496.5t-496 -189.5q-283 0 -492.5 190.5t-209.5 495.5zM393 655q0 -178 114 -291.5t267 -113.5q152 0 267.5 113.5t115.5 291.5q0 176 -113.5 290t-269.5 114q-154 0 -267.5 -114 t-113.5 -290zM579 1565q123 35 246 98.5t213 147.5l49 -215q-88 -61 -172 -96t-203 -66z" />
<glyph unicode="&#xd4;" d="M72 655q0 303 208.5 492.5t493.5 189.5q283 0 494 -190.5t211 -491.5q0 -307 -209 -496.5t-496 -189.5q-283 0 -492.5 190.5t-209.5 495.5zM393 655q0 -178 114 -291.5t267 -113.5q152 0 267.5 113.5t115.5 291.5q0 176 -113.5 290t-269.5 114q-154 0 -267.5 -114 t-113.5 -290zM474 1559q84 39 163.5 107.5t141.5 158.5q59 -90 140 -158.5t165 -107.5l-127 -125q-61 29 -97 52.5t-81 70.5q-39 -39 -82 -68.5t-96 -54.5z" />
<glyph unicode="&#xd5;" d="M72 655q0 303 208.5 492.5t493.5 189.5q283 0 494 -190.5t211 -491.5q0 -307 -209 -496.5t-496 -189.5q-283 0 -492.5 190.5t-209.5 495.5zM393 655q0 -178 114 -291.5t267 -113.5q152 0 267.5 113.5t115.5 291.5q0 176 -113.5 290t-269.5 114q-154 0 -267.5 -114 t-113.5 -290zM424 1471l51 203q100 59 166 84.5t154 25.5l22 -141q133 20 272 104l-49 -200q-88 -57 -159.5 -85t-159.5 -28l-25 139q-135 -18 -272 -102z" />
<glyph unicode="&#xd6;" d="M72 655q0 303 208.5 492.5t493.5 189.5q283 0 494 -190.5t211 -491.5q0 -307 -209 -496.5t-496 -189.5q-283 0 -492.5 190.5t-209.5 495.5zM393 655q0 -178 114 -291.5t267 -113.5q152 0 267.5 113.5t115.5 291.5q0 176 -113.5 290t-269.5 114q-154 0 -267.5 -114 t-113.5 -290zM456 1569q0 31 51.5 84t83.5 53q35 0 85.5 -52t50.5 -85q0 -31 -52.5 -83t-83.5 -52q-33 0 -84 51t-51 84zM823 1569q0 31 51 84t84 53t85 -52t52 -85q0 -31 -52 -83t-85 -52t-84 51t-51 84z" />
<glyph unicode="&#xd7;" horiz-adv-x="899" d="M90 354l205 205l-205 207l156 156l205 -207l206 205l154 -154l-205 -205l207 -207l-156 -155l-206 204l-205 -204z" />
<glyph unicode="&#xd8;" d="M72 655q0 303 208.5 492.5t493.5 189.5q203 0 373 -100l110 135l119 -98l-104 -129q96 -92 151.5 -218t55.5 -272q0 -307 -209 -496.5t-496 -189.5q-201 0 -371 101l-108 -136l-121 101l105 127q-96 92 -151.5 218t-55.5 275zM369 655q0 -78 23.5 -146.5t68.5 -121.5 l512 633q-93 51 -199 51q-166 0 -285.5 -115.5t-119.5 -300.5zM582 289q92 -49 192 -49q164 0 286 115.5t122 299.5q0 76 -23.5 144t-66.5 121z" />
<glyph unicode="&#xd9;" horiz-adv-x="1357" d="M113 446v861h317v-832q0 -100 68.5 -162.5t183.5 -62.5t184.5 61.5t69.5 163.5v832h309v-861q0 -213 -162.5 -344t-404.5 -131t-403.5 130t-161.5 345zM331 1596l52 215q92 -88 210.5 -148.5t247.5 -97.5l-133 -131q-115 29 -200 64.5t-177 97.5z" />
<glyph unicode="&#xda;" horiz-adv-x="1357" d="M113 446v861h317v-832q0 -100 68.5 -162.5t183.5 -62.5t184.5 61.5t69.5 163.5v832h309v-861q0 -213 -162.5 -344t-404.5 -131t-403.5 130t-161.5 345zM520 1565q123 35 246 98.5t213 147.5l49 -215q-88 -61 -172 -96t-203 -66z" />
<glyph unicode="&#xdb;" horiz-adv-x="1357" d="M113 446v861h317v-832q0 -100 68.5 -162.5t183.5 -62.5t184.5 61.5t69.5 163.5v832h309v-861q0 -213 -162.5 -344t-404.5 -131t-403.5 130t-161.5 345zM375 1559q84 39 163.5 107.5t141.5 158.5q59 -90 140 -158.5t165 -107.5l-127 -125q-61 29 -97 52.5t-81 70.5 q-39 -39 -82 -68.5t-96 -54.5z" />
<glyph unicode="&#xdc;" horiz-adv-x="1357" d="M113 446v861h317v-832q0 -100 68.5 -162.5t183.5 -62.5t184.5 61.5t69.5 163.5v832h309v-861q0 -213 -162.5 -344t-404.5 -131t-403.5 130t-161.5 345zM364 1569q0 31 51.5 84t83.5 53q35 0 85.5 -52t50.5 -85q0 -31 -52.5 -83t-83.5 -52q-33 0 -84 51t-51 84zM731 1569 q0 31 51 84t84 53t85 -52t52 -85q0 -31 -52 -83t-85 -52t-84 51t-51 84z" />
<glyph unicode="&#xdd;" horiz-adv-x="1275" d="M-4 1307h338l215 -316q55 -82 94 -155l102 155l216 316h315l-485 -723v-584h-308v578zM461 1565q123 35 246 98.5t213 147.5l49 -215q-88 -61 -172 -96t-203 -66z" />
<glyph unicode="&#xde;" horiz-adv-x="1046" d="M113 0v1307h305v-152h174q176 0 299 -107.5t123 -287.5t-122 -289t-300 -109h-174v-362h-305zM418 612h129q68 0 116 37t48 111q0 68 -49 106.5t-115 38.5h-129v-293z" />
<glyph unicode="&#xdf;" horiz-adv-x="1208" d="M113 0v946q0 248 121.5 388.5t347.5 140.5q213 0 334.5 -128t121.5 -323q0 -82 -9 -137.5t-30 -112.5q-104 0 -170.5 -29.5t-66.5 -76.5q0 -49 193.5 -111.5t193.5 -288.5q0 -129 -93.5 -213t-273.5 -84q-96 0 -168.5 19.5t-119.5 52.5v244q53 -41 121.5 -65.5 t154.5 -24.5q96 0 96 67q0 53 -118.5 95t-190.5 120t-72 185q0 117 74 190.5t174 87.5q14 43 15 100q0 74 -47.5 129.5t-120.5 55.5q-84 0 -131.5 -65.5t-47.5 -174.5v-987h-288z" />
<glyph unicode="&#xe0;" horiz-adv-x="991" d="M59 276q0 125 87 206t229 96l184 18v33q0 45 -35 70.5t-110 25.5q-78 0 -152 -18.5t-121 -44.5l-22 229q51 29 137 47t174 18q197 0 308.5 -97t111.5 -275v-267q0 -121 106 -137l-104 -209q-63 0 -115.5 28t-81.5 77q-96 -104 -260 -105q-145 0 -240.5 83t-95.5 222z M152 1196l43 182q72 -70 180 -125t209 -84l-113 -110q-100 25 -171 54.5t-148 82.5zM322 272q0 -39 27.5 -64.5t70.5 -25.5q57 0 102 40t45 97v87l-125 -13q-61 -6 -90.5 -40t-29.5 -81z" />
<glyph unicode="&#xe1;" horiz-adv-x="991" d="M59 276q0 125 87 206t229 96l184 18v33q0 45 -35 70.5t-110 25.5q-78 0 -152 -18.5t-121 -44.5l-22 229q51 29 137 47t174 18q197 0 308.5 -97t111.5 -275v-267q0 -121 106 -137l-104 -209q-63 0 -115.5 28t-81.5 77q-96 -104 -260 -105q-145 0 -240.5 83t-95.5 222z M256 1169q109 31 210 83.5t179 125.5l43 -182q-76 -53 -145.5 -81.5t-173.5 -55.5zM322 272q0 -39 27.5 -64.5t70.5 -25.5q57 0 102 40t45 97v87l-125 -13q-61 -6 -90.5 -40t-29.5 -81z" />
<glyph unicode="&#xe2;" horiz-adv-x="991" d="M59 276q0 125 87 206t229 96l184 18v33q0 45 -35 70.5t-110 25.5q-78 0 -152 -18.5t-121 -44.5l-22 229q51 29 137 47t174 18q197 0 308.5 -97t111.5 -275v-267q0 -121 106 -137l-104 -209q-63 0 -115.5 28t-81.5 77q-96 -104 -260 -105q-145 0 -240.5 83t-95.5 222z M195 1165q70 31 139 90.5t121 135.5q51 -78 118.5 -135.5t139.5 -90.5l-109 -106q-47 23 -82 46t-67 58q-33 -35 -69 -58.5t-83 -45.5zM322 272q0 -39 27.5 -64.5t70.5 -25.5q57 0 102 40t45 97v87l-125 -13q-61 -6 -90.5 -40t-29.5 -81z" />
<glyph unicode="&#xe3;" horiz-adv-x="991" d="M59 276q0 125 87 206t229 96l184 18v33q0 45 -35 70.5t-110 25.5q-78 0 -152 -18.5t-121 -44.5l-22 229q51 29 137 47t174 18q197 0 308.5 -97t111.5 -275v-267q0 -121 106 -137l-104 -209q-63 0 -115.5 28t-81.5 77q-96 -104 -260 -105q-145 0 -240.5 83t-95.5 222z M193 1090l43 172q78 47 138 70.5t134 23.5l18 -119q115 18 232 88l-41 -170q-72 -47 -135.5 -71.5t-137.5 -24.5l-20 119q-53 -8 -112.5 -31t-118.5 -57zM322 272q0 -39 27.5 -64.5t70.5 -25.5q57 0 102 40t45 97v87l-125 -13q-61 -6 -90.5 -40t-29.5 -81z" />
<glyph unicode="&#xe4;" horiz-adv-x="991" d="M59 276q0 125 87 206t229 96l184 18v33q0 45 -35 70.5t-110 25.5q-78 0 -152 -18.5t-121 -44.5l-22 229q51 29 137 47t174 18q197 0 308.5 -97t111.5 -275v-267q0 -121 106 -137l-104 -209q-63 0 -115.5 28t-81.5 77q-96 -104 -260 -105q-145 0 -240.5 83t-95.5 222z M186 1174q0 27 43 71.5t72 44.5t72 -45t43 -71q0 -27 -44 -71t-71 -44t-71 44t-44 71zM322 272q0 -39 27.5 -64.5t70.5 -25.5q57 0 102 40t45 97v87l-125 -13q-61 -6 -90.5 -40t-29.5 -81zM498 1174q0 29 44 72.5t70 43.5q29 0 73 -44t44 -72q0 -27 -44 -71t-73 -44 q-27 0 -70.5 44t-43.5 71z" />
<glyph unicode="&#xe5;" horiz-adv-x="991" d="M59 276q0 125 87 206t229 96l184 18v33q0 45 -35 70.5t-110 25.5q-78 0 -152 -18.5t-121 -44.5l-22 229q51 29 137 47t174 18q197 0 308.5 -97t111.5 -275v-267q0 -121 106 -137l-104 -209q-63 0 -115.5 28t-81.5 77q-96 -104 -260 -105q-145 0 -240.5 83t-95.5 222z M229 1249q0 90 64.5 152.5t155.5 62.5q90 0 153.5 -61.5t63.5 -153.5q0 -90 -63.5 -153.5t-153.5 -63.5q-88 0 -154 63.5t-66 153.5zM322 272q0 -39 27.5 -64.5t70.5 -25.5q57 0 102 40t45 97v87l-125 -13q-61 -6 -90.5 -40t-29.5 -81zM342 1249q0 -47 29.5 -76.5 t77.5 -29.5q47 0 76.5 29.5t29.5 76.5t-28.5 76t-77.5 29q-45 0 -76 -29t-31 -76z" />
<glyph unicode="&#xe6;" horiz-adv-x="1525" d="M59 272q0 127 87 206t231 93l182 19v37q0 45 -36 71.5t-109 26.5q-78 0 -152 -18.5t-121 -44.5l-22 229q51 29 137 47t174 18q207 0 311 -108q131 109 310 108q184 0 298.5 -108.5t114.5 -259.5v-47q-6 -33 -8 -45l-121 -119h-463q20 -72 89 -122t188 -50q143 0 264 67 l-27 -247q-55 -27 -119.5 -40.5t-156.5 -13.5q-231 0 -383 133q-59 -68 -143 -100.5t-183 -32.5q-150 0 -246 81t-96 220zM322 268q0 -39 27.5 -62.5t70.5 -23.5q57 0 102 40t45 97v78l-123 -10q-63 -6 -92.5 -38t-29.5 -81zM862 569h328l2 21q0 57 -39 98t-102 41 q-70 0 -121 -43t-68 -117z" />
<glyph unicode="&#xe7;" horiz-adv-x="937" d="M61 463q0 223 150.5 358t361.5 135q94 0 165 -16t130 -49l-24 -260q-100 59 -230 59q-109 0 -179 -61.5t-70 -165.5q0 -102 75.5 -166t188.5 -64q121 0 229 58l-24 -268q-45 -25 -112 -38.5t-140 -13.5l-2 -22q66 0 117 -53.5t51 -128.5q0 -88 -59.5 -136.5t-143.5 -48.5 q-80 0 -135 37l18 113q27 -20 51.5 -27.5t61.5 -7.5q31 0 50 19.5t19 47.5q0 68 -78 68q-45 0 -61 -4l25 149q-184 27 -309.5 158t-125.5 328z" />
<glyph unicode="&#xe8;" horiz-adv-x="1017" d="M59 469q0 219 140.5 353t343.5 134q186 0 300.5 -108.5t114.5 -259.5q0 -47 -10 -92l-121 -119h-462q20 -72 88.5 -124t183.5 -52q147 0 268 71l-26 -247q-55 -27 -120 -40.5t-157 -13.5q-231 0 -387 137.5t-156 360.5zM268 1196l43 182q76 -72 182.5 -126t208.5 -83 l-114 -110q-100 27 -171 54.5t-149 82.5zM354 569h328l2 21q0 57 -39 98t-102 41q-70 0 -121 -43t-68 -117z" />
<glyph unicode="&#xe9;" horiz-adv-x="1017" d="M59 469q0 219 140.5 353t343.5 134q186 0 300.5 -108.5t114.5 -259.5q0 -47 -10 -92l-121 -119h-462q20 -72 88.5 -124t183.5 -52q147 0 268 71l-26 -247q-55 -27 -120 -40.5t-157 -13.5q-231 0 -387 137.5t-156 360.5zM354 569h328l2 21q0 57 -39 98t-102 41 q-70 0 -121 -43t-68 -117zM379 1169q106 31 209.5 83.5t181.5 125.5l41 -182q-78 -55 -143 -81.5t-174 -55.5z" />
<glyph unicode="&#xea;" horiz-adv-x="1017" d="M59 469q0 219 140.5 353t343.5 134q186 0 300.5 -108.5t114.5 -259.5q0 -47 -10 -92l-121 -119h-462q20 -72 88.5 -124t183.5 -52q147 0 268 71l-26 -247q-55 -27 -120 -40.5t-157 -13.5q-231 0 -387 137.5t-156 360.5zM281 1165q70 31 139 90.5t121 135.5 q53 -80 118.5 -136.5t141.5 -89.5l-109 -106q-47 23 -83 46t-68 58q-33 -35 -69 -58.5t-83 -45.5zM354 569h328l2 21q0 57 -39 98t-102 41q-70 0 -121 -43t-68 -117z" />
<glyph unicode="&#xeb;" horiz-adv-x="1017" d="M59 469q0 219 140.5 353t343.5 134q186 0 300.5 -108.5t114.5 -259.5q0 -47 -10 -92l-121 -119h-462q20 -72 88.5 -124t183.5 -52q147 0 268 71l-26 -247q-55 -27 -120 -40.5t-157 -13.5q-231 0 -387 137.5t-156 360.5zM266 1174q0 27 43 71.5t72 44.5t72 -45t43 -71 q0 -27 -44 -71t-71 -44t-71 44t-44 71zM354 569h328l2 21q0 57 -39 98t-102 41q-70 0 -121 -43t-68 -117zM578 1174q0 29 44 72.5t70 43.5q29 0 73 -44t44 -72q0 -27 -44 -71t-73 -44q-27 0 -70.5 44t-43.5 71z" />
<glyph unicode="&#xec;" horiz-adv-x="538" d="M0 1196l43 182q76 -72 182.5 -126t208.5 -83l-115 -110q-102 27 -170.5 54.5t-148.5 82.5zM119 0v928h303v-928h-303z" />
<glyph unicode="&#xed;" horiz-adv-x="538" d="M109 1169q109 31 210 83.5t179 125.5l43 -182q-76 -53 -146 -81.5t-174 -55.5zM119 0v928h303v-928h-303z" />
<glyph unicode="&#xee;" horiz-adv-x="538" d="M10 1165q70 31 139.5 90.5t120.5 135.5q51 -78 119 -135.5t139 -90.5l-108 -106q-47 23 -82 46t-68 58q-33 -35 -68.5 -58.5t-82.5 -45.5zM119 0v928h303v-928h-303z" />
<glyph unicode="&#xef;" horiz-adv-x="538" d="M-2 1174q0 27 43 71.5t72 44.5t71.5 -45t42.5 -71q0 -27 -43.5 -71t-70.5 -44t-71 44t-44 71zM119 0v928h303v-928h-303zM309 1174q0 27 43 71.5t72 44.5t73 -44t44 -72q0 -27 -44 -71t-73 -44q-27 0 -71 44t-44 71z" />
<glyph unicode="&#xf1;" horiz-adv-x="1079" d="M92 0v928h264l9 -92q41 57 109.5 86.5t168.5 29.5q154 0 249 -91t95 -243v-618h-301v553q0 55 -37 92t-104 37q-68 0 -110 -38t-42 -95v-549h-301zM252 1090l43 172q78 47 138.5 70.5t133.5 23.5l19 -119q115 18 231 88l-41 -170q-72 -47 -135 -71.5t-137 -24.5l-21 119 q-53 -8 -112.5 -31t-118.5 -57z" />
<glyph unicode="&#xf2;" horiz-adv-x="1132" d="M61 463q0 215 145.5 354t360.5 139q213 0 358.5 -139t145.5 -354q0 -213 -145.5 -352.5t-358.5 -139.5t-359.5 138.5t-146.5 353.5zM287 1196l43 182q72 -70 180 -125t209 -84l-113 -110q-100 25 -170.5 54.5t-148.5 82.5zM352 463q0 -102 62.5 -169t152.5 -67 q88 0 151.5 67.5t63.5 168.5q0 102 -62.5 170.5t-152.5 68.5q-88 0 -151.5 -67.5t-63.5 -171.5z" />
<glyph unicode="&#xf3;" horiz-adv-x="1132" d="M61 463q0 215 145.5 354t360.5 139q213 0 358.5 -139t145.5 -354q0 -213 -145.5 -352.5t-358.5 -139.5t-359.5 138.5t-146.5 353.5zM352 463q0 -102 62.5 -169t152.5 -67q88 0 151.5 67.5t63.5 168.5q0 102 -62.5 170.5t-152.5 68.5q-88 0 -151.5 -67.5t-63.5 -171.5z M420 1169q109 31 210 83.5t179 125.5l43 -182q-76 -53 -146 -81.5t-174 -55.5z" />
<glyph unicode="&#xf4;" horiz-adv-x="1132" d="M61 463q0 215 145.5 354t360.5 139q213 0 358.5 -139t145.5 -354q0 -213 -145.5 -352.5t-358.5 -139.5t-359.5 138.5t-146.5 353.5zM305 1165q70 31 139.5 90.5t120.5 135.5q51 -78 119 -135.5t139 -90.5l-108 -106q-47 23 -82 46t-68 58q-33 -35 -68.5 -58.5 t-82.5 -45.5zM352 463q0 -102 62.5 -169t152.5 -67q88 0 151.5 67.5t63.5 168.5q0 102 -62.5 170.5t-152.5 68.5q-88 0 -151.5 -67.5t-63.5 -171.5z" />
<glyph unicode="&#xf5;" horiz-adv-x="1132" d="M61 463q0 215 145.5 354t360.5 139q213 0 358.5 -139t145.5 -354q0 -213 -145.5 -352.5t-358.5 -139.5t-359.5 138.5t-146.5 353.5zM285 1090l45 172q78 47 137 70.5t133 23.5l21 -119q53 8 113.5 31.5t117.5 56.5l-43 -170q-72 -47 -134.5 -71.5t-135.5 -24.5l-21 119 q-53 -8 -114.5 -31t-118.5 -57zM352 463q0 -102 62.5 -169t152.5 -67q88 0 151.5 67.5t63.5 168.5q0 102 -62.5 170.5t-152.5 68.5q-88 0 -151.5 -67.5t-63.5 -171.5z" />
<glyph unicode="&#xf6;" horiz-adv-x="1132" d="M61 463q0 215 145.5 354t360.5 139q213 0 358.5 -139t145.5 -354q0 -213 -145.5 -352.5t-358.5 -139.5t-359.5 138.5t-146.5 353.5zM293 1174q0 27 43 71.5t72 44.5t71.5 -45t42.5 -71q0 -27 -43.5 -71t-70.5 -44t-71 44t-44 71zM352 463q0 -102 62.5 -169t152.5 -67 q88 0 151.5 67.5t63.5 168.5q0 102 -62.5 170.5t-152.5 68.5q-88 0 -151.5 -67.5t-63.5 -171.5zM604 1174q0 27 43 71.5t72 44.5t73 -44t44 -72q0 -27 -44 -71t-73 -44q-27 0 -71 44t-44 71z" />
<glyph unicode="&#xf7;" horiz-adv-x="925" d="M68 451v229h790v-229h-790zM324 236q0 35 52 87t87 52q33 0 85 -52.5t52 -86.5q0 -35 -52 -87.5t-85 -52.5q-35 0 -87 52.5t-52 87.5zM324 895q0 35 52 87t87 52q33 0 85 -52t52 -87t-52 -87t-85 -52q-35 0 -87 52t-52 87z" />
<glyph unicode="&#xf8;" horiz-adv-x="1126" d="M61 463q0 215 145.5 354t360.5 139q143 0 258 -65l82 102l101 -84l-78 -96q141 -137 141 -350t-145.5 -352.5t-358.5 -139.5q-143 0 -262 68l-84 -105l-100 84l80 99q-68 68 -104 153.5t-36 192.5zM322 463q0 -39 10 -76t28 -70l314 385q-48 27 -107 27 q-102 0 -173.5 -75.5t-71.5 -190.5zM457 225q53 -27 110 -26q100 0 173 74.5t73 189.5q0 81 -43 151z" />
<glyph unicode="&#xf9;" horiz-adv-x="1079" d="M92 309v619h301v-553q0 -55 37 -92t105 -37t109.5 38t41.5 95v549h301v-928h-264l-8 92q-41 -57 -109.5 -87t-169.5 -30q-154 0 -249 91.5t-95 242.5zM250 1196l43 182q76 -72 182.5 -126t208.5 -83l-115 -110q-102 27 -170.5 54.5t-148.5 82.5z" />
<glyph unicode="&#xfa;" horiz-adv-x="1079" d="M92 309v619h301v-553q0 -55 37 -92t105 -37t109.5 38t41.5 95v549h301v-928h-264l-8 92q-41 -57 -109.5 -87t-169.5 -30q-154 0 -249 91.5t-95 242.5zM397 1169q106 31 210 83.5t181 125.5l41 -182q-78 -55 -143 -81.5t-174 -55.5z" />
<glyph unicode="&#xfb;" horiz-adv-x="1079" d="M92 309v619h301v-553q0 -55 37 -92t105 -37t109.5 38t41.5 95v549h301v-928h-264l-8 92q-41 -57 -109.5 -87t-169.5 -30q-154 0 -249 91.5t-95 242.5zM281 1165q70 31 139 90.5t121 135.5q53 -80 118.5 -136.5t141.5 -89.5l-109 -106q-47 23 -83 46t-68 58 q-33 -35 -69 -58.5t-83 -45.5z" />
<glyph unicode="&#xfc;" horiz-adv-x="1079" d="M92 309v619h301v-553q0 -55 37 -92t105 -37t109.5 38t41.5 95v549h301v-928h-264l-8 92q-41 -57 -109.5 -87t-169.5 -30q-154 0 -249 91.5t-95 242.5zM272 1174q0 27 43 71.5t72 44.5t72 -45t43 -71q0 -27 -44 -71t-71 -44t-71 44t-44 71zM584 1174q0 29 44 72.5t70 43.5 q29 0 73 -44t44 -72q0 -27 -44 -71t-73 -44q-27 0 -70.5 44t-43.5 71z" />
<glyph unicode="&#xfd;" horiz-adv-x="1034" d="M31 928h297l137 -363q29 -74 57 -180q14 45 27.5 86t32.5 92l139 365h283l-326 -848q-96 -250 -216 -390.5t-284 -181.5l-123 195q111 37 183.5 112.5t138.5 231.5zM381 1169q109 31 210 83.5t179 125.5l43 -182q-76 -53 -145.5 -81.5t-173.5 -55.5z" />
<glyph unicode="&#xfe;" horiz-adv-x="1128" d="M102 -473v1931h291v-557q80 51 207 51q178 0 322.5 -132t144.5 -345q0 -223 -142.5 -363.5t-357.5 -140.5q-57 0 -100 10.5t-74 28.5v-483h-291zM393 287q31 -27 73 -42.5t95 -15.5q94 0 155.5 65.5t61.5 166.5q0 100 -61.5 165.5t-155.5 65.5q-100 0 -168 -63v-342z" />
<glyph unicode="&#xff;" horiz-adv-x="1034" d="M31 928h297l137 -363q29 -74 57 -180q14 45 27.5 86t32.5 92l139 365h283l-326 -848q-96 -250 -216 -390.5t-284 -181.5l-123 195q111 37 183.5 112.5t138.5 231.5zM252 1167q0 27 43 72t72 45t71.5 -45t42.5 -72t-43.5 -70.5t-70.5 -43.5t-71 44t-44 70zM563 1167 q0 27 43 72t72 45t73 -44t44 -73q0 -27 -44 -70.5t-73 -43.5q-27 0 -71 44t-44 70z" />
<glyph unicode="&#x152;" horiz-adv-x="1935" d="M72 655q0 303 208.5 492.5t493.5 189.5q195 0 344 -98l2 68h717v-260h-446v-261h364v-264h-364v-262h503v-260h-774l-2 70q-72 -49 -161 -74t-183 -25q-283 0 -492.5 189.5t-209.5 494.5zM395 655q0 -174 114 -285.5t269 -111.5q92 0 174 33t140 92v543q-53 55 -139.5 90 t-174.5 35q-158 0 -270.5 -111t-112.5 -285z" />
<glyph unicode="&#x153;" horiz-adv-x="1728" d="M59 465q0 215 146.5 353t361.5 138t351 -135q131 135 335 135q184 0 300 -109.5t116 -258.5q0 -47 -10 -92l-121 -119h-461q18 -70 88 -121t187 -51q147 0 264 67l-27 -247q-51 -25 -118.5 -40.5t-157.5 -15.5q-240 0 -389 144q-137 -141 -357 -142q-213 0 -360.5 139.5 t-147.5 354.5zM352 463q0 -102 62.5 -169t152.5 -67q88 0 151.5 67.5t63.5 168.5q0 102 -62.5 170.5t-152.5 68.5q-88 0 -151.5 -67.5t-63.5 -171.5zM1067 569h328l2 21q0 55 -40.5 97t-103.5 42q-68 0 -119 -44t-67 -116z" />
<glyph unicode="&#x178;" horiz-adv-x="1275" d="M-4 1307h338l215 -316q55 -82 94 -155l102 155l216 316h315l-485 -723v-584h-308v578zM317 1562q0 31 51.5 84t83.5 53q35 0 85.5 -52t50.5 -85q0 -31 -52.5 -83t-83.5 -52q-33 0 -84 51t-51 84zM684 1562q0 31 51 84t84 53t85 -52t52 -85q0 -31 -52 -83t-85 -52t-84 51 t-51 84z" />
<glyph unicode="&#x2000;" horiz-adv-x="955" />
<glyph unicode="&#x2001;" horiz-adv-x="1911" />
<glyph unicode="&#x2002;" horiz-adv-x="955" />
<glyph unicode="&#x2003;" horiz-adv-x="1911" />
<glyph unicode="&#x2004;" horiz-adv-x="637" />
<glyph unicode="&#x2005;" horiz-adv-x="477" />
<glyph unicode="&#x2006;" horiz-adv-x="318" />
<glyph unicode="&#x2007;" horiz-adv-x="318" />
<glyph unicode="&#x2008;" horiz-adv-x="238" />
<glyph unicode="&#x2009;" horiz-adv-x="382" />
<glyph unicode="&#x200a;" horiz-adv-x="106" />
<glyph unicode="&#x2010;" horiz-adv-x="671" d="M68 451v229h536v-229h-536z" />
<glyph unicode="&#x2011;" horiz-adv-x="671" d="M68 451v229h536v-229h-536z" />
<glyph unicode="&#x2012;" horiz-adv-x="671" d="M68 451v229h536v-229h-536z" />
<glyph unicode="&#x2013;" horiz-adv-x="1208" d="M68 451v229h1073v-229h-1073z" />
<glyph unicode="&#x2014;" horiz-adv-x="1744" d="M68 451v229h1611v-229h-1611z" />
<glyph unicode="&#x2018;" horiz-adv-x="450" d="M57 1020q0 84 81 222t177 224l99 -16q-59 -70 -99.5 -145.5t-52.5 -143.5q37 -6 85 -56t48 -85q0 -45 -64.5 -106.5t-105.5 -61.5q-37 0 -102.5 61.5t-65.5 106.5z" />
<glyph unicode="&#x2019;" horiz-adv-x="450" d="M37 877q57 66 98 144.5t53 145.5q-37 6 -85 56.5t-48 85.5q0 45 64.5 105.5t105.5 60.5q37 0 103.5 -60.5t66.5 -105.5q0 -86 -81 -222.5t-181 -226.5z" />
<glyph unicode="&#x201a;" horiz-adv-x="450" d="M37 -291q57 66 98 144.5t53 146.5q-37 6 -85 56t-48 85q0 43 64.5 104.5t105.5 61.5q37 0 103.5 -60.5t66.5 -105.5q0 -86 -81 -222t-181 -226z" />
<glyph unicode="&#x201c;" horiz-adv-x="870" d="M57 1020q0 84 81 222t177 224l99 -16q-59 -70 -99.5 -145.5t-52.5 -143.5q37 -6 85 -56t48 -85q0 -45 -64.5 -106.5t-105.5 -61.5q-37 0 -102.5 61.5t-65.5 106.5zM477 1020q0 84 82 222t178 226l99 -18q-59 -70 -100.5 -145.5t-53.5 -141.5q37 -8 86 -59t49 -84 q0 -45 -65.5 -106.5t-104.5 -61.5t-104.5 61.5t-65.5 106.5z" />
<glyph unicode="&#x201d;" horiz-adv-x="872" d="M37 877q57 66 98 144.5t53 145.5q-37 6 -85 56.5t-48 85.5q0 45 64.5 105.5t105.5 60.5q35 0 102.5 -61.5t67.5 -104.5q0 -86 -81 -222.5t-181 -226.5zM457 879q59 70 100 145.5t53 142.5q-37 6 -86 57.5t-49 84.5q0 45 64.5 105.5t105.5 60.5q37 0 103.5 -60.5 t66.5 -105.5q0 -84 -81 -221.5t-179 -227.5z" />
<glyph unicode="&#x201e;" horiz-adv-x="872" d="M31 -291q57 70 98 145.5t53 145.5q-37 6 -85 56t-48 85q0 43 64.5 104.5t105.5 61.5q35 0 102.5 -61.5t67.5 -104.5q0 -86 -81 -222t-181 -226zM451 -289q59 70 100 145.5t53 143.5q-39 6 -87 56t-48 85q0 43 64.5 104.5t105.5 61.5q37 0 103.5 -60.5t66.5 -105.5 q0 -86 -81 -222t-179 -226z" />
<glyph unicode="&#x2022;" horiz-adv-x="860" d="M78 563q0 150 101.5 247t250.5 97q147 0 250.5 -97t103.5 -247t-102 -248t-252 -98t-251 97.5t-101 248.5z" />
<glyph unicode="&#x2026;" horiz-adv-x="1290" d="M55 139q0 39 64.5 103.5t105.5 64.5t105.5 -64.5t64.5 -103.5q0 -41 -63.5 -104.5t-106.5 -63.5q-41 0 -105.5 64.5t-64.5 103.5zM475 139q0 39 64.5 103.5t105.5 64.5t105.5 -64.5t64.5 -103.5q0 -41 -63.5 -104.5t-106.5 -63.5t-106.5 63.5t-63.5 104.5zM895 139 q0 39 64.5 103.5t105.5 64.5t105.5 -64.5t64.5 -103.5q0 -41 -63.5 -104.5t-106.5 -63.5q-41 0 -105.5 64.5t-64.5 103.5z" />
<glyph unicode="&#x202f;" horiz-adv-x="382" />
<glyph unicode="&#x2039;" horiz-adv-x="534" d="M-16 567q109 74 199.5 170.5t158.5 208.5l150 -149q-31 -61 -74 -120t-96 -110q51 -49 95 -107.5t75 -121.5l-150 -150q-68 109 -160 208.5t-198 170.5z" />
<glyph unicode="&#x203a;" horiz-adv-x="534" d="M43 338q29 59 74 120.5t96 108.5q-106 100 -170 230l150 149q135 -225 356 -379q-106 -72 -197 -169t-159 -210z" />
<glyph unicode="&#x205f;" horiz-adv-x="477" />
<glyph unicode="&#x2122;" horiz-adv-x="890" d="M41 1212v95h307v-97h-102v-282h-105v284h-100zM379 928l31 379h86l108 -213l107 213h86l30 -379h-104l-14 172l-86 -172h-43l-84 168l-13 -168h-104z" />
<glyph unicode="&#x25fc;" horiz-adv-x="931" d="M0 0v932h932v-932h-932z" />
</font>
</defs>
</svg>
